<svg id="Layer_5" enable-background="new 0 0 64 64" height="512" viewBox="0 0 64 64" width="512" xmlns="http://www.w3.org/2000/svg"><g><g><g><path d="m43 51c-2.206 0-4-1.794-4-4s1.794-4 4-4 4 1.794 4 4-1.794 4-4 4z" fill="#f0bc5e"/></g></g><g><g><path d="m49 25h-34c-1.103 0-2-.897-2-2v-16c0-1.103.897-2 2-2h34c1.103 0 2 .897 2 2v16c0 1.103-.897 2-2 2z" fill="#f0bc5e"/></g></g><g><path d="m50 1h-36c-2.757 0-5 2.243-5 5v52c0 2.757 2.243 5 5 5h36c2.757 0 5-2.243 5-5v-52c0-2.757-2.243-5-5-5zm-36 2h36c1.654 0 3 1.346 3 3v29h-42v-29c0-1.654 1.346-3 3-3zm36 58h-36c-1.654 0-3-1.346-3-3v-21h42v21c0 1.654-1.346 3-3 3z"/><path d="m41 39c-5.514 0-10 4.486-10 10s4.486 10 10 10 10-4.486 10-10-4.486-10-10-10zm6.312 14.898-1.362-1.362-1.414 1.414 1.363 1.362c-1.106.86-2.44 1.436-3.898 1.619v-1.931h-2v1.931c-1.458-.183-2.792-.759-3.898-1.619l1.363-1.362-1.414-1.414-1.362 1.362c-.86-1.106-1.436-2.44-1.619-3.898h1.929v-2h-1.931c.183-1.458.759-2.792 1.619-3.898l1.362 1.362 1.414-1.414-1.363-1.362c1.356-1.054 3.053-1.688 4.899-1.688 4.411 0 8 3.589 8 8 0 1.846-.634 3.542-1.688 4.898z"/><path d="m13 59h8v-6h-8zm2-4h4v2h-4z"/><path d="m19 45h-6v6h6zm-2 4h-2v-2h2z"/><path d="m27 45h-6v6h6zm-2 4h-2v-2h2z"/><path d="m23 53h6v2h-6z"/><path d="m23 57h6v2h-6z"/><path d="m21.131 22.499 3.078-8.207 2.812 4.687 3.82-6.685 4.127 10.319 3.27-7.629 2.262 3.016h10.5v-2h-9.5l-3.738-4.984-2.73 6.371-3.873-9.681-4.18 7.315-3.188-5.313-2.922 7.793-1.251-2.501h-6.618v2h5.382z"/><path d="m23 27h-10v6h10zm-2 4h-6v-2h6z"/><path d="m27 33h10v-6h-10zm2-4h6v2h-6z"/><path d="m41 33h10v-6h-10zm2-4h6v2h-6z"/><path d="m13 39h2v2h-2z"/><path d="m17 39h2v2h-2z"/><path d="m25 39h2v2h-2z"/><path d="m21 39h2v2h-2z"/></g></g></svg>