<svg id="Layer_5" enable-background="new 0 0 64 64" height="512" viewBox="0 0 64 64" width="512" xmlns="http://www.w3.org/2000/svg"><g><g><g><path d="m20 58v2c0 1.1-.9 2-2 2h-6c-1.1 0-2-.9-2-2v-2z" fill="#969faa"/></g><g><path d="m54 58v2c0 1.1-.9 2-2 2h-6c-1.1 0-2-.9-2-2v-2z" fill="#969faa"/></g><g><path d="m58 44v10c0 2.21-1.79 4-4 4h-10-24-10c-2.21 0-4-1.79-4-4v-10z" fill="#ccd1d9"/></g><g><circle cx="13" cy="51" fill="#b4dd7f" r="3"/></g><g><circle cx="23" cy="51" fill="#b4dd7f" r="3"/></g><g><circle cx="52" cy="52" fill="#ff826e" r="2"/></g><g><circle cx="44" cy="52" fill="#ff826e" r="2"/></g><g><path d="m6 44c-2.21 0-4-1.79-4-4v-34c0-2.21 1.79-4 4-4h52c2.21 0 4 1.79 4 4v34c0 2.21-1.79 4-4 4z" fill="#e6e9ed"/></g><g><path d="m58 15c0 2.48-1.01 4.74-2.64 6.36-1.62 1.63-3.88 2.64-6.36 2.64s-4.74-1.01-6.36-2.64c-1.63-1.62-2.64-3.88-2.64-6.36 0-4.97 4.03-9 9-9 2.48 0 4.74 1.01 6.36 2.64 1.63 1.62 2.64 3.88 2.64 6.36z" fill="#69d6f4"/></g><g><circle cx="47" cy="13" fill="#ff826e" r="3"/></g><g><path d="m6 6v9.375 20.625h30v-20.625-9.375z" fill="#69d6f4"/></g><g><path d="m46 28h12v12h-12z" fill="#fcd770"/></g></g><g><path d="m13 47c-2.206 0-4 1.794-4 4s1.794 4 4 4 4-1.794 4-4-1.794-4-4-4zm0 6c-1.103 0-2-.897-2-2s.897-2 2-2 2 .897 2 2-.897 2-2 2z"/><path d="m23 47c-2.206 0-4 1.794-4 4s1.794 4 4 4 4-1.794 4-4-1.794-4-4-4zm0 6c-1.103 0-2-.897-2-2s.897-2 2-2 2 .897 2 2-.897 2-2 2z"/><path d="m52 49c-1.654 0-3 1.346-3 3s1.346 3 3 3 3-1.346 3-3-1.346-3-3-3zm0 4c-.552 0-1-.449-1-1s.448-1 1-1 1 .449 1 1-.448 1-1 1z"/><path d="m44 49c-1.654 0-3 1.346-3 3s1.346 3 3 3 3-1.346 3-3-1.346-3-3-3zm0 4c-.552 0-1-.449-1-1s.448-1 1-1 1 .449 1 1-.448 1-1 1z"/><path d="m58 1h-52c-2.757 0-5 2.243-5 5v34c0 2.414 1.721 4.434 4 4.899v9.101c0 2.414 1.721 4.434 4 4.899v1.101c0 1.654 1.346 3 3 3h6c1.654 0 3-1.346 3-3v-1h22v1c0 1.654 1.346 3 3 3h6c1.654 0 3-1.346 3-3v-1.101c2.279-.465 4-2.484 4-4.899v-9.101c2.279-.465 4-2.484 4-4.899v-34c0-2.757-2.243-5-5-5zm-39 59c0 .551-.448 1-1 1h-6c-.552 0-1-.449-1-1v-1h8zm33 1h-6c-.552 0-1-.449-1-1v-1h8v1c0 .551-.448 1-1 1zm2-4h-44c-1.654 0-3-1.346-3-3v-9h50v9c0 1.654-1.346 3-3 3zm7-17c0 1.654-1.346 3-3 3h-52c-1.654 0-3-1.346-3-3v-34c0-1.654 1.346-3 3-3h52c1.654 0 3 1.346 3 3z"/><path d="m5 37h32v-32h-32zm2-2v-12h28v12zm0-21.906c.206.406.4.867.576 1.291.705 1.695 1.505 3.615 3.421 3.615s2.716-1.921 3.421-3.616c.442-1.062.993-2.384 1.575-2.384.583 0 1.134 1.322 1.576 2.385.705 1.695 1.505 3.615 3.421 3.615s2.716-1.921 3.422-3.616c.442-1.062.993-2.384 1.576-2.384.585 0 1.137 1.322 1.58 2.385.707 1.695 1.508 3.615 3.426 3.615s2.719-1.92 3.426-3.615c.177-.425.373-.889.58-1.296v7.911h-28zm28-6.094v3.224c-1.219.54-1.858 2.03-2.426 3.391-.443 1.063-.995 2.385-1.58 2.385s-1.137-1.322-1.58-2.385c-.707-1.695-1.508-3.615-3.426-3.615-1.916 0-2.716 1.921-3.422 3.616-.442 1.062-.993 2.384-1.576 2.384-.582 0-1.133-1.322-1.575-2.384-.705-1.695-1.506-3.616-3.422-3.616s-2.716 1.921-3.421 3.616c-.442 1.062-.993 2.384-1.575 2.384s-1.133-1.322-1.575-2.384c-.566-1.361-1.205-2.85-2.422-3.391v-3.225z"/><path d="m49 5c-5.514 0-10 4.486-10 10s4.486 10 10 10 10-4.486 10-10-4.486-10-10-10zm0 2c1.846 0 3.543.634 4.898 1.688l-1.363 1.362 1.414 1.414 1.362-1.362c.86 1.106 1.436 2.44 1.619 3.898h-1.93v2h1.931c-.183 1.458-.759 2.792-1.619 3.898l-1.362-1.362-1.414 1.414 1.363 1.362c-1.106.86-2.44 1.436-3.898 1.619v-1.931h-2v1.931c-1.458-.183-2.792-.759-3.898-1.619l1.363-1.362-1.414-1.414-1.362 1.362c-1.056-1.356-1.69-3.052-1.69-4.898 0-4.411 3.589-8 8-8z"/><path d="m47 17c2.206 0 4-1.794 4-4s-1.794-4-4-4-4 1.794-4 4 1.794 4 4 4zm0-6c1.103 0 2 .897 2 2s-.897 2-2 2-2-.897-2-2 .897-2 2-2z"/><path d="m24.998 25c-2.236 0-3.411.587-4.448 1.105-.96.48-1.789.895-3.554.895-1.763 0-2.592-.415-3.551-.895-1.036-.518-2.21-1.105-4.445-1.105v2c1.763 0 2.592.415 3.551.895 1.036.518 2.21 1.105 4.445 1.105 2.236 0 3.411-.587 4.448-1.105.96-.48 1.789-.895 3.554-.895s2.594.415 3.554.895c1.037.518 2.212 1.105 4.448 1.105v-2c-1.765 0-2.594-.415-3.554-.895-1.037-.518-2.212-1.105-4.448-1.105z"/><path d="m24.998 29c-2.236 0-3.411.587-4.448 1.105-.96.48-1.789.895-3.554.895-1.763 0-2.592-.415-3.551-.895-1.036-.518-2.21-1.105-4.445-1.105v2c1.763 0 2.592.415 3.551.895 1.036.518 2.21 1.105 4.445 1.105 2.236 0 3.411-.587 4.448-1.105.96-.48 1.789-.895 3.554-.895s2.594.415 3.554.895c1.037.518 2.212 1.105 4.448 1.105v-2c-1.765 0-2.594-.415-3.554-.895-1.037-.518-2.212-1.105-4.448-1.105z"/><path d="m45 41h14v-14h-14zm2-4h2v2h-2zm6-4v2h-2v-2zm-2-2v-2h2v2zm4 2h2v2h-2zm-2 4v2h-2v-2zm-4-2h-2v-2h2zm6 4v-2h2v2zm2-8h-2v-2h2zm-8-2v2h-2v-2z"/><path d="m39 27h4v2h-4z"/><path d="m39 31h4v2h-4z"/><path d="m39 35h4v2h-4z"/><path d="m39 39h4v2h-4z"/><path d="m5 39h2v2h-2z"/><path d="m21 39h2v2h-2z"/><path d="m17 39h2v2h-2z"/><path d="m9 39h2v2h-2z"/><path d="m13 39h2v2h-2z"/></g></g></svg>