<?xml version="1.0" encoding="iso-8859-1"?>
<!-- Generator: Adobe Illustrator 19.0.0, SVG Export Plug-In . SVG Version: 6.00 Build 0)  -->
<svg version="1.1" id="Capa_1" xmlns="http://www.w3.org/2000/svg" xmlns:xlink="http://www.w3.org/1999/xlink" x="0px" y="0px"
	 viewBox="0 0 468.293 468.293" style="enable-background:new 0 0 468.293 468.293;" xml:space="preserve">
<path style="fill:#647989;" d="M344.543,402.831L244.372,86.471c-1.411-4.456-5.548-7.488-10.224-7.488
	c-4.676,0-8.813,3.032-10.224,7.488l-41.865,132.214c0,0-0.005,0.015-0.007,0.022l-58.302,184.124
	c-1.788,5.645,1.341,11.672,6.988,13.457c1.076,0.346,2.165,0.508,3.239,0.508c4.55,0,8.774-2.922,10.221-7.493l22.159-69.981
	l22.662,15.479l-18.555,57.126c-1.827,5.634,1.254,11.682,6.888,13.515c1.1,0.356,2.215,0.529,3.315,0.529
	c4.519,0,8.724-2.885,10.198-7.415l16.613-51.149l20.622,14.086c1.825,1.246,3.935,1.869,6.048,1.869
	c2.123,0,4.247-0.628,6.077-1.885l20.567-14.143l16.637,51.222c1.474,4.529,5.676,7.415,10.198,7.415
	c1.097,0,2.215-0.173,3.315-0.529c5.634-1.833,8.716-7.881,6.888-13.515l-18.602-57.27l22.636-15.566l22.232,70.213
	c1.788,5.65,7.805,8.787,13.46,6.985C343.203,414.503,346.332,408.476,344.543,402.831z M196.646,243.663l21.722,26.145
	l-38.279,26.146L196.646,243.663z M288.293,296.232l-38.388-26.398l21.743-26.171L288.293,296.232z M234.148,125.231l29.804,94.126
	l-29.804,35.877l-29.805-35.876L234.148,125.231z M234.127,359.637l-26.281-17.95c-0.301-0.211-0.585-0.44-0.91-0.621L179.5,322.328
	l54.626-37.309l54.253,37.309L234.127,359.637z"/>
<g>
	<path style="fill:#3B566A;" d="M81.896,2.712C59.201,25.407,46.703,55.626,46.703,87.801c0,32.178,12.499,62.397,35.194,85.089
		c3.616,3.616,9.473,3.616,13.089,0c3.616-3.616,3.616-9.473,0-13.089c-19.2-19.197-29.77-44.767-29.77-72
		c0-27.23,10.57-52.8,29.77-72c1.808-1.808,2.712-4.176,2.712-6.545c0-2.368-0.904-4.737-2.712-6.545
		C91.37-0.904,85.512-0.904,81.896,2.712z"/>
	<path style="fill:#3B566A;" d="M112.438,142.345c3.616,3.616,9.473,3.616,13.089,0c3.616-3.616,3.616-9.473,0-13.089
		c-22.852-22.858-22.852-60.052,0-82.91c1.808-1.808,2.712-4.176,2.712-6.545c0-2.368-0.904-4.737-2.712-6.545
		c-3.616-3.616-9.473-3.616-13.089,0C82.354,63.334,82.354,112.267,112.438,142.345z"/>
	<path style="fill:#3B566A;" d="M133.042,87.801c0,9.067,3.531,17.591,9.943,24.003c3.616,3.613,9.479,3.613,13.089-0.003
		c3.616-3.616,3.616-9.476,0-13.092c-5.833-5.818-5.833-15.988,0-21.812c1.808-1.808,2.712-4.179,2.712-6.548
		s-0.904-4.737-2.712-6.545c-3.61-3.616-9.473-3.616-13.089-0.003C136.573,70.213,133.042,78.737,133.042,87.801z"/>
	<path style="fill:#3B566A;" d="M386.396,2.712c22.695,22.695,35.194,52.914,35.194,85.089c0,32.178-12.499,62.397-35.194,85.089
		c-3.616,3.616-9.473,3.616-13.089,0s-3.616-9.473,0-13.089c19.2-19.197,29.77-44.767,29.77-72c0-27.23-10.57-52.8-29.77-72
		c-1.808-1.808-2.712-4.176-2.712-6.545c0-2.368,0.904-4.737,2.712-6.545C376.923-0.904,382.781-0.904,386.396,2.712z"/>
	<path style="fill:#3B566A;" d="M355.855,142.345c-3.616,3.616-9.473,3.616-13.089,0c-3.616-3.616-3.616-9.473,0-13.089
		c22.852-22.858,22.852-60.052,0-82.91c-1.808-1.808-2.712-4.176-2.712-6.545c0-2.368,0.904-4.737,2.712-6.545
		c3.616-3.616,9.473-3.616,13.089,0C385.938,63.334,385.938,112.267,355.855,142.345z"/>
	<path style="fill:#3B566A;" d="M335.251,87.801c0,9.067-3.531,17.591-9.943,24.003c-3.616,3.613-9.479,3.613-13.089-0.003
		c-3.616-3.616-3.616-9.476,0-13.092c5.833-5.818,5.833-15.988,0-21.812c-1.808-1.808-2.712-4.179-2.712-6.548
		s0.904-4.737,2.712-6.545c3.61-3.616,9.473-3.616,13.089-0.003C331.719,70.213,335.251,78.737,335.251,87.801z"/>
</g>
<path style="fill:#1A76A1;" d="M96.4,406.068h275.493c4.337,0,8.248,2.613,9.908,6.62l19.114,40.777
	c2.925,7.061-2.264,14.828-9.908,14.828H77.286c-7.643,0-12.833-7.767-9.908-14.828l19.114-40.777
	C88.152,408.68,92.063,406.068,96.4,406.068z"/>
<circle style="fill:#3B566A;" cx="234.146" cy="87.802" r="48.259"/>
<g>
</g>
<g>
</g>
<g>
</g>
<g>
</g>
<g>
</g>
<g>
</g>
<g>
</g>
<g>
</g>
<g>
</g>
<g>
</g>
<g>
</g>
<g>
</g>
<g>
</g>
<g>
</g>
<g>
</g>
</svg>
