<svg height="480pt" viewBox="0 0 480 480" width="480pt" xmlns="http://www.w3.org/2000/svg"><path d="m0 448h480v32h-480zm0 0" fill="#a66d43"/><path d="m264 56h-72c-61.855469 0-112 50.144531-112 112h-32c0-79.527344 64.472656-144 144-144h72" fill="#a66d43"/><path d="m280 64h32v56h-32zm0 0" fill="#a66d43"/><path d="m336 40c0 22.089844-17.910156 40-40 40s-40-17.910156-40-40 17.910156-40 40-40 40 17.910156 40 40zm0 0" fill="#4472b2"/><path d="m272 192-32-24c0-30.929688 25.070312-56 56-56s56 25.070312 56 56l-32 24v-32h-48zm0 0" fill="#4472b2"/><path d="m144 224h80v80h-80zm0 0" fill="#efbe9a"/><path d="m256 224h80v80h-80zm0 0" fill="#efbe9a"/><path d="m368 224h80v80h-80zm0 0" fill="#efbe9a"/><path d="m112 304v-96c0-26.511719-21.488281-48-48-48s-48 21.488281-48 48v112" fill="#f0d365"/><path d="m80 208c0 8.835938-7.164062 16-16 16s-16-7.164062-16-16 7.164062-16 16-16 16 7.164062 16 16zm0 0" fill="#fff"/><path d="m424 416h-368c-30.929688 0-56-25.070312-56-56s25.070312-56 56-56h368c30.929688 0 56 25.070312 56 56s-25.070312 56-56 56zm0 0" fill="#a66d43"/><g fill="#f0d365"><path d="m264 360c0 13.253906-10.746094 24-24 24s-24-10.746094-24-24 10.746094-24 24-24 24 10.746094 24 24zm0 0"/><path d="m344 360c0 13.253906-10.746094 24-24 24s-24-10.746094-24-24 10.746094-24 24-24 24 10.746094 24 24zm0 0"/><path d="m424 360c0 13.253906-10.746094 24-24 24s-24-10.746094-24-24 10.746094-24 24-24 24 10.746094 24 24zm0 0"/><path d="m104 360c0 13.253906-10.746094 24-24 24s-24-10.746094-24-24 10.746094-24 24-24 24 10.746094 24 24zm0 0"/><path d="m184 360c0 13.253906-10.746094 24-24 24s-24-10.746094-24-24 10.746094-24 24-24 24 10.746094 24 24zm0 0"/></g></svg>