<svg id="Capa_1" enable-background="new 0 0 512 512" height="512" viewBox="0 0 512 512" width="512" xmlns="http://www.w3.org/2000/svg"><g><g><path d="m256 280.361c-141.387 0-244.23-112.229-223.58-149.148 43.788-78.288 127.502-131.213 223.58-131.213 96.052 0 179.747 52.896 223.544 131.149 20.672 36.934-82.157 149.212-223.544 149.212z" fill="#d775a0"/><path d="m512 256c0 26.051-3.891 51.191-11.129 74.871-5.031 16.469-11.672 32.231-19.75 47.109-8.25 15.2-147.391 40.633-225.121 40.633s-216.871-25.433-225.109-40.633c-3.289-6.031-6.332-12.21-9.121-18.531-14-31.629-21.77-66.629-21.77-103.449 0-46.219 12.25-89.57 33.68-127 44.121 77.07 127.16 129 222.32 129s178.211-51.93 222.32-129c21.43 37.43 33.68 80.781 33.68 127zm0 0" fill="#c43071"/><path d="m481.262 377.699c-7.16 13.223-15.434 25.742-24.723 37.43-5.932 7.476-12.282 14.608-19.005 21.366-2.839 2.853-12.948-2.715-15.917.003-3.312 3.033.498 14.334-2.971 17.192-20.668 17.025-44.052 30.873-69.404 40.795-28.894 11.308-156.631 11.496-185.161.514-25.862-9.955-49.701-23.988-70.728-41.309-3.469-2.858 1.061-14.159-2.251-17.192-2.959-2.708-13.777 2.869-16.607.026-6.734-6.766-13.094-13.908-19.034-21.395-9.289-11.688-17.563-24.207-24.723-37.43zm0 0" fill="#8a1155"/></g><g><g><path d="m257.353 440.91h-41.027l-6.651 17.733c-7.198 19.192-25.804 32.086-46.301 32.086h-.906v3.642c28.974 11.378 60.522 17.629 93.532 17.629.452 0 .901-.015 1.353-.017z" fill="#323b5f"/><path d="m163.374 490.729h-.906v3.642c15.866 6.23 32.508 10.912 49.737 13.882v-56.357l-2.53 6.747c-7.197 19.192-25.804 32.086-46.301 32.086z" fill="#424d7f"/><path d="m259.433 411.739-184.942-3.471v-259.286h184.942l16.234 142.387z" fill="#eff5ff"/><path d="m437.509 148.982h-181.509v262.757l181.509-3.47z" fill="#dae7fc"/><path d="m349.531 490.729c-20.497 0-39.103-12.894-46.301-32.086l-6.651-17.733h-40.579v71.09c33.01 0 64.558-6.251 93.531-17.628z" fill="#2b3242"/><path d="m74.491 408.269v28.251c5.997 6.03 12.29 11.766 18.86 17.177h163.816l11.971-27.403-11.971-18.025z" fill="#536695"/><path d="m163.519 408.269v45.428h99.124l6.495-27.403-6.495-18.025z" fill="#414f73"/><path d="m437.509 408.269h-181.509v45.428h162.649c6.57-5.412 12.863-11.147 18.86-17.177z" fill="#323b5f"/><g><path d="m329.885 252.43h21.271v49.125h-21.271z" fill="#efc142"/></g></g><g><path d="m200.905 265.741v80.413h55.095l12.327-37.409-12.327-43.004z" fill="#7775e6"/><path d="m227.314 265.741v80.413h33.514l7.499-37.409-7.499-43.004z" fill="#5c5ccc"/><path d="m256 265.741h55.095v80.413h-55.095z" fill="#3829ad"/></g><g><path d="m135.811 249.454 120.189 43.815 26.69-40.1-26.69-47.53z" fill="#959ef3"/></g><g><path d="m188.335 249.454 67.665 43.815 26.69-40.1-26.69-47.53z" fill="#8087e0"/></g><path d="m256 205.639v87.63l120.189-43.815z" fill="#5c5ccc"/></g><g fill="#fff"><path d="m274.109 46.779h-1.524c-6.754 0-12.226-5.477-12.226-12.227v-1.523h-8.715v1.523c0 6.75-5.477 12.227-12.227 12.227h-1.527v8.715h1.527c6.75 0 12.227 5.472 12.227 12.226v1.528h8.715v-1.528c0-6.754 5.472-12.226 12.226-12.226h1.524zm0-10.763"/><g><path d="m389.906 99.734h-1.524c-6.754 0-12.226-5.477-12.226-12.227v-1.523h-8.715v1.523c0 6.75-5.477 12.227-12.227 12.227h-1.527v8.715h1.527c6.75 0 12.227 5.472 12.227 12.226v1.528h8.715v-1.528c0-6.754 5.472-12.226 12.226-12.226h1.524zm0 0"/><path d="m158.312 99.734h-1.524c-6.754 0-12.226-5.477-12.226-12.227v-1.523h-8.715v1.523c0 6.75-5.477 12.227-12.227 12.227h-1.527v8.715h1.527c6.75 0 12.227 5.472 12.227 12.226v1.528h8.715v-1.528c0-6.754 5.472-12.226 12.226-12.226h1.524zm0 0"/></g></g></g></svg>