<svg id="Capa_1" enable-background="new 0 0 512 512" height="512" viewBox="0 0 512 512" width="512" xmlns="http://www.w3.org/2000/svg"><g><path d="m326 100h40v110h-40z" fill="#a4caff"/><circle cx="325" cy="257" fill="#e7e7ef" r="47"/><circle cx="256" cy="35" fill="#e7e7ef" r="25"/><path d="m236 235h40v267h-40z" fill="#b7bcce"/><path d="m226 100h60v110h-60z" fill="#a4caff"/><path d="m146 100h40v110h-40z" fill="#a4caff"/><path d="m186 125h40v60h-40z" fill="#e7e7ef"/><path d="m156 257.333h40v50h-40z" fill="#a4caff"/><path d="m316 344h40v40h-40z" fill="#a4caff"/><path d="m286 125h40v60h-40z" fill="#e7e7ef"/><circle cx="256" cy="235" fill="#e7e7ef" r="25"/><g><path d="m406 492h-120v-14c0-5.51-4.49-10-10-10s-9.99 4.48-10 9.99v.01 14h-20v-223.463c3.171.947 6.526 1.463 10 1.463s6.829-.516 10-1.463v119.463c0 5.51 4.49 10 10 10s10-4.49 10-10v-14h20v10c0 5.523 4.478 10 10 10h40c5.522 0 10-4.477 10-10v-40c0-5.523-4.478-10-10-10h-40c-5.522 0-10 4.477-10 10v10h-20v-55.488c10.204 9.593 23.923 15.488 39 15.488 31.43 0 57-25.57 57-57 0-14.221-5.247-27.231-13.891-37.227 4.509-.969 7.891-4.974 7.891-9.773v-110c0-5.523-4.478-10-10-10h-40c-5.522 0-10 4.477-10 10v15h-20v-15c0-5.523-4.478-10-10-10h-20v-21.463c14.44-4.314 25-17.712 25-33.537 0-19.299-15.701-35-35-35s-35 15.701-35 35c0 15.824 10.56 29.223 25 33.537v21.463h-20c-5.523 0-10 4.477-10 10v15h-20v-15c0-5.523-4.477-10-10-10h-40c-5.523 0-10 4.477-10 10v110c0 5.523 4.477 10 10 10h40c5.523 0 10-4.477 10-10v-15h20v15c0 4.992 3.662 9.118 8.444 9.867-2.206 4.582-3.444 9.716-3.444 15.133 0 6.581 1.828 12.741 5 18.006v19.328h-20v-15c0-5.523-4.477-10-10-10h-40c-5.523 0-10 4.477-10 10v50c0 5.523 4.477 10 10 10h40c5.523 0 10-4.477 10-10v-15h20v199.666h-120c-5.523 0-10 4.477-10 10s4.477 10 10 10h300c5.522 0 10-4.477 10-10s-4.478-10-10-10zm-80-138h20v20h-20zm-85-319c0-8.271 6.729-15 15-15s15 6.729 15 15-6.729 15-15 15-15-6.729-15-15zm-55 262.333h-20v-30h20zm130-96.614c-7.203 1.148-13.958 3.647-20 7.233v-12.952h20zm-45 34.281c0 8.271-6.729 15-15 15s-15-6.729-15-15 6.729-15 15-15 15 6.729 15 15zm54 59c-20.402 0-37-16.598-37-37s16.598-37 37-37 37 16.598 37 37-16.598 37-37 37zm11-184h20v90h-20zm-20 25v40h-20v-40zm-80-25h40v90h-40zm-60 90h-20v-90h20zm20-25v-40h20v40z"/><circle cx="276" cy="433" r="10"/></g></g></svg>