<svg id="_x31__x2C_5px" enable-background="new 0 0 24 24" height="512" viewBox="0 0 24 24" width="512" xmlns="http://www.w3.org/2000/svg"><g fill="#607d8b"><path d="m5.281 14.656h-1.562c-.259 0-.469-.21-.469-.469v-1.875c0-.259.21-.469.469-.469h1.563c.259 0 .469.21.469.469v1.875c-.001.259-.211.469-.47.469z"/><path d="m20.196 14.503h-1.392c-.231 0-.418-.187-.418-.418v-1.671c0-.231.187-.418.418-.418h1.392c.231 0 .418.187.418.418v1.671c0 .231-.187.418-.418.418z"/><path d="m21.25 15h-18.5c-1.105 0-2 .895-2 2v4.25c0 1.105.895 2 2 2h18.5c1.105 0 2-.895 2-2v-4.25c0-1.105-.895-2-2-2z"/></g><circle cx="5" cy="19" fill="#fff" r="1.25"/><path d="m14.25 18.75v.5c0 .552-.448 1-1 1h-2.5c-.552 0-1-.448-1-1v-.5c0-.552.448-1 1-1h2.5c.552 0 1 .448 1 1z" fill="#fff"/><circle cx="19" cy="19" fill="#fff" r="1.313"/><circle cx="4.5" cy="4.5" r="1.5"/><circle cx="19.5" cy="4.5" r="1.5"/><path d="m13.5 9c-.014 0-.027 0-.041-.001-.291-.016-.547-.199-.655-.471l-2.401-6.002-1.24 2.326c-.132.246-.386.398-.663.398h-3c-.414 0-.75-.336-.75-.75s.336-.75.75-.75h2.55l1.788-3.353c.138-.258.417-.414.703-.396.291.016.547.199.655.471l2.401 6.002 1.24-2.326c.132-.246.386-.398.663-.398h3c.414 0 .75.336.75.75s-.336.75-.75.75h-2.55l-1.788 3.353c-.131.246-.386.397-.662.397z"/><path d="m4.5 12.5c-.414 0-.75-.336-.75-.75v-6.25c0-.414.336-.75.75-.75s.75.336.75.75v6.25c0 .414-.336.75-.75.75z"/><path d="m21.25 24h-18.5c-1.517 0-2.75-1.233-2.75-2.75v-4.5c0-1.517 1.233-2.75 2.75-2.75h18.5c1.517 0 2.75 1.233 2.75 2.75v4.5c0 1.517-1.233 2.75-2.75 2.75zm-18.5-8.5c-.689 0-1.25.561-1.25 1.25v4.5c0 .689.561 1.25 1.25 1.25h18.5c.689 0 1.25-.561 1.25-1.25v-4.5c0-.689-.561-1.25-1.25-1.25z"/><path d="m5.75 15.5c-.414 0-.75-.336-.75-.75v-2.25h-1v2.25c0 .414-.336.75-.75.75s-.75-.336-.75-.75v-3c0-.414.336-.75.75-.75h2.5c.414 0 .75.336.75.75v3c0 .414-.336.75-.75.75z"/><path d="m19.5 12.5c-.414 0-.75-.336-.75-.75v-6.25c0-.414.336-.75.75-.75s.75.336.75.75v6.25c0 .414-.336.75-.75.75z"/><path d="m20.75 15.5c-.414 0-.75-.336-.75-.75v-2.25h-1v2.25c0 .414-.336.75-.75.75s-.75-.336-.75-.75v-3c0-.414.336-.75.75-.75h2.5c.414 0 .75.336.75.75v3c0 .414-.336.75-.75.75z"/><path d="m5 21c-1.103 0-2-.897-2-2s.897-2 2-2 2 .897 2 2-.897 2-2 2zm0-2.5c-.275 0-.5.225-.5.5s.225.5.5.5.5-.225.5-.5-.225-.5-.5-.5z"/><path d="m19 21c-1.103 0-2-.897-2-2s.897-2 2-2 2 .897 2 2-.897 2-2 2zm0-2.5c-.275 0-.5.225-.5.5s.225.5.5.5.5-.225.5-.5-.225-.5-.5-.5z"/><path d="m13.25 21h-2.5c-.965 0-1.75-.785-1.75-1.75v-.5c0-.965.785-1.75 1.75-1.75h2.5c.965 0 1.75.785 1.75 1.75v.5c0 .965-.785 1.75-1.75 1.75zm-2.5-2.5c-.138 0-.25.112-.25.25v.5c0 .138.112.25.25.25h2.5c.138 0 .25-.112.25-.25v-.5c0-.138-.112-.25-.25-.25z"/></svg>