<svg id="Capa_1" enable-background="new 0 0 512 512" height="512" viewBox="0 0 512 512" width="512" xmlns="http://www.w3.org/2000/svg"><g><g><path d="m482 150v266h-452v-266c0-11.05 8.95-20 20-20h412c11.05 0 20 8.95 20 20z" fill="#ff9256"/><path d="m502 479v23h-126v-43h106c11.05 0 20 8.95 20 20z" fill="#ff9256"/><path d="m482 416v43c-9.538 0-445.856 0-452 0v-43z" fill="#eefaff"/><path d="m462 50v40c-13.99 0-26.01 0-40 0v-40z" fill="#eefaff"/><path d="m462 30v20h-40v-20c0-11.05 8.95-20 20-20s20 8.95 20 20z" fill="#fff2a0"/><path d="m336 50v40c-13.99 0-26.01 0-40 0v-40z" fill="#eefaff"/><path d="m336 30v20h-40v-20c0-11.05 8.95-20 20-20s20 8.95 20 20z" fill="#fff2a0"/><path d="m196 459h120v43h-120z" fill="#ff9256"/><path d="m70 173h166v200h-166z" fill="#fff2a0"/><path d="m216 50v40c-13.99 0-26.01 0-40 0v-40z" fill="#eefaff"/><path d="m216 30v20h-40v-20c0-11.05 8.95-20 20-20s20 8.95 20 20z" fill="#fff2a0"/><path d="m136 459v43h-126v-23c0-11.05 8.95-20 20-20z" fill="#ff9256"/><path d="m90 50v40c-13.99 0-26.01 0-40 0v-40z" fill="#eefaff"/><path d="m90 30v20h-40v-20c0-11.05 8.95-20 20-20s20 8.95 20 20z" fill="#fff2a0"/></g><g><circle cx="442" cy="293" r="10"/><circle cx="442" cy="333" r="10"/><circle cx="442" cy="373" r="10"/><path d="m492 450.72v-300.72c0-16.542-13.458-30-30-30h-10v-20h30c5.523 0 10-4.478 10-10s-4.477-10-10-10h-10v-20h10c5.523 0 10-4.478 10-10s-4.477-10-10-10h-10v-10c0-16.542-13.458-30-30-30s-30 13.458-30 30v10h-10c-5.523 0-10 4.478-10 10s4.477 10 10 10h10v20h-10c-5.523 0-10 4.478-10 10s4.477 10 10 10h30v20h-106v-20h30c5.523 0 10-4.478 10-10s-4.477-10-10-10h-10v-20h10c5.523 0 10-4.478 10-10s-4.477-10-10-10h-10v-10c0-16.542-13.458-30-30-30s-30 13.458-30 30v10h-10c-5.523 0-10 4.478-10 10s4.477 10 10 10h10v20h-10c-5.523 0-10 4.478-10 10s4.477 10 10 10h30v20h-100v-20h30c5.523 0 10-4.478 10-10s-4.477-10-10-10h-10v-20h10c5.523 0 10-4.478 10-10s-4.477-10-10-10h-10v-10c0-16.542-13.458-30-30-30s-30 13.458-30 30v10h-10c-5.523 0-10 4.478-10 10s4.477 10 10 10h10v20h-10c-5.523 0-10 4.478-10 10s4.477 10 10 10h30v20h-106v-20h30c5.523 0 10-4.478 10-10s-4.477-10-10-10h-10v-20h10c5.523 0 10-4.478 10-10s-4.477-10-10-10h-10v-10c0-16.542-13.458-30-30-30s-30 13.458-30 30v10h-10c-5.523 0-10 4.478-10 10s4.477 10 10 10h10v20h-10c-5.523 0-10 4.478-10 10s4.477 10 10 10h30v20h-10c-16.542 0-30 13.458-30 30v300.72c-11.639 4.128-20 15.244-20 28.28v23c0 5.522 4.477 10 10 10h126c5.523 0 10-4.478 10-10v-33h40v33c0 5.522 4.477 10 10 10h120c5.523 0 10-4.478 10-10v-33h40v33c0 5.522 4.477 10 10 10h126c5.523 0 10-4.478 10-10v-23c0-13.036-8.361-24.152-20-28.28zm-60-420.72c0-5.514 4.486-10 10-10s10 4.486 10 10v10h-20zm0 30h20v20h-20zm-126-30c0-5.514 4.486-10 10-10s10 4.486 10 10v10h-20zm0 30h20v20h-20zm-120-30c0-5.514 4.486-10 10-10s10 4.486 10 10v10h-20zm0 30h20v20h-20zm-126-30c0-5.514 4.486-10 10-10s10 4.486 10 10v10h-20zm0 30h20v20h-20zm66 432h-106v-13c0-5.514 4.486-10 10-10h96zm180 0h-100v-23h100zm-266-43v-23h171c5.523 0 10-4.478 10-10s-4.477-10-10-10h-171v-256c0-5.514 4.486-10 10-10h412c5.514 0 10 4.486 10 10v256h-171c-5.523 0-10 4.478-10 10s4.477 10 10 10h171v23c-184.002 0-116.717 0-432 0zm452 43h-106v-23h96c5.514 0 10 4.486 10 10z"/><path d="m246 173c0-5.522-4.477-10-10-10h-166c-5.523 0-10 4.478-10 10v200c0 5.522 4.477 10 10 10h166c5.523 0 10-4.478 10-10zm-20 190h-146v-180h146z"/><path d="m276 223h166c5.523 0 10-4.478 10-10s-4.477-10-10-10h-166c-5.523 0-10 4.478-10 10s4.477 10 10 10z"/><path d="m276 263h166c5.523 0 10-4.478 10-10s-4.477-10-10-10h-166c-5.523 0-10 4.478-10 10s4.477 10 10 10z"/><path d="m276 183h166c5.523 0 10-4.478 10-10s-4.477-10-10-10h-166c-5.523 0-10 4.478-10 10s4.477 10 10 10z"/><path d="m276 303h126c5.523 0 10-4.478 10-10s-4.477-10-10-10h-126c-5.523 0-10 4.478-10 10s4.477 10 10 10z"/><path d="m276 343h126c5.523 0 10-4.478 10-10s-4.477-10-10-10h-126c-5.523 0-10 4.478-10 10s4.477 10 10 10z"/><path d="m412 373c0-5.522-4.477-10-10-10h-126c-5.523 0-10 4.478-10 10s4.477 10 10 10h126c5.523 0 10-4.478 10-10z"/><path d="m113 283h61.315l-29.635 44.453c-3.064 4.595-1.822 10.804 2.773 13.867 4.575 3.05 10.791 1.842 13.867-2.773l40-60c2.046-3.068 2.237-7.014.497-10.266-1.74-3.251-5.129-5.281-8.817-5.281h-61.315l29.635-44.453c3.064-4.595 1.822-10.804-2.773-13.867s-10.803-1.822-13.867 2.773l-40 60c-2.046 3.068-2.237 7.014-.497 10.266 1.74 3.251 5.129 5.281 8.817 5.281z"/><circle cx="256" cy="416" r="10"/></g></g></svg>