<svg id="Layer_5" enable-background="new 0 0 64 64" height="512" viewBox="0 0 64 64" width="512" xmlns="http://www.w3.org/2000/svg"><g><g><g><path d="m18 48v2c0 1.1-.9 2-2 2h-6c-1.1 0-2-.9-2-2v-2z" fill="#969faa"/></g><g><path d="m56 48v2c0 1.1-.9 2-2 2h-6c-1.1 0-2-.9-2-2v-2z" fill="#969faa"/></g><g><path d="m62 16v28c0 2.21-1.79 4-4 4h-2-10-28-10-2c-2.21 0-4-1.79-4-4v-28c0-2.21 1.79-4 4-4h52c2.21 0 4 1.79 4 4z" fill="#ccd1d9"/></g><g><path d="m24 40h6v4h-6z" fill="#b4dd7f"/></g><g><path d="m34 40h6v4h-6z" fill="#b4dd7f"/></g><g><path d="m14 40h6v4h-6z" fill="#fcd770"/></g><g><circle cx="8" cy="42" fill="#b4dd7f" r="2"/></g><g><circle cx="56" cy="34" fill="#ff826e" r="2"/></g><g><circle cx="56" cy="42" fill="#ff826e" r="2"/></g><g><circle cx="48" cy="42" fill="#ff826e" r="2"/></g><g><circle cx="48" cy="34" fill="#ff826e" r="2"/></g><g><path d="m18 28.44c.52.23 1 .56 1.41.97l1.18 1.18c.41.41.89.74 1.41.97.62.29 1.3.44 2 .44s1.38-.15 2-.44c.52-.23 1-.56 1.41-.97l1.18-1.18c.41-.41.89-.74 1.41-.97.62-.29 1.3-.44 2-.44s1.38.15 2 .44c.52.23 1 .56 1.41.97l1.18 1.18c.41.41.89.74 1.41.97.62.29 1.3.44 2 .44h2v3c0 .55-.45 1-1 1h-34c-.55 0-1-.45-1-1v-3h2c.7 0 1.38-.15 2-.44.52-.23 1-.56 1.41-.97l1.18-1.18c.41-.41.89-.74 1.41-.97.62-.29 1.3-.44 2-.44s1.38.15 2 .44z" fill="#69d6f4"/></g><g><path d="m18 23.56c-.62.29-1.3.44-2 .44s-1.38-.15-2-.44c-.52-.23-1-.56-1.41-.97l-1.18-1.18c-.41-.41-.89-.74-1.41-.97-.62-.29-1.3-.44-2-.44h-2v-3c0-.55.45-1 1-1h34c.55 0 1 .45 1 1v3h-2c-.7 0-1.38.15-2 .44-.52.23-1 .56-1.41.97l-1.18 1.18c-.41.41-.89.74-1.41.97-.62.29-1.3.44-2 .44s-1.38-.15-2-.44c-.52-.23-1-.56-1.41-.97l-1.18-1.18c-.41-.41-.89-.74-1.41-.97-.62-.29-1.3-.44-2-.44s-1.38.15-2 .44c-.52.23-1 .56-1.41.97l-1.18 1.18c-.41.41-.89.74-1.41.97z" fill="#69d6f4"/></g><g><path d="m12.59 22.59c.41.41.89.74 1.41.97v4.88c-.52.23-1 .56-1.41.97l-1.18 1.18c-.41.41-.89.74-1.41.97v-11.12c.52.23 1 .56 1.41.97z" fill="#fcd770"/></g><g><path d="m22 20.45v11.1.01c-.52-.23-1-.56-1.41-.97l-1.18-1.18c-.41-.41-.89-.74-1.41-.97v-4.88c.52-.23 1-.56 1.41-.97l1.18-1.18c.41-.41.89-.74 1.41-.97z" fill="#fcd770"/></g><g><path d="m27.41 30.59c-.41.41-.89.74-1.41.97v-.01-11.1-.01c.52.23 1 .56 1.41.97l1.18 1.18c.41.41.89.74 1.41.97v4.88c-.52.23-1 .56-1.41.97z" fill="#fcd770"/></g><g><path d="m38 20.44v11.12c-.52-.23-1-.56-1.41-.97l-1.18-1.18c-.41-.41-.89-.74-1.41-.97v-4.88c.52-.23 1-.56 1.41-.97l1.18-1.18c.41-.41.89-.74 1.41-.97z" fill="#fcd770"/></g><g><path d="m42 20v12h-2c-.7 0-1.38-.15-2-.44v-11.12c.62-.29 1.3-.44 2-.44z" fill="#ffeaa7"/></g><g><path d="m34 23.56v4.88c-.62-.29-1.3-.44-2-.44s-1.38.15-2 .44v-4.88c.62.29 1.3.44 2 .44s1.38-.15 2-.44z" fill="#ffeaa7"/></g><g><path d="m26 31.55v.01c-.62.29-1.3.44-2 .44s-1.38-.15-2-.44v-.01-11.1-.01c.62-.29 1.3-.44 2-.44s1.38.15 2 .44v.01z" fill="#ffeaa7"/></g><g><path d="m18 23.56v4.88c-.62-.29-1.3-.44-2-.44s-1.38.15-2 .44v-4.88c.62.29 1.3.44 2 .44s1.38-.15 2-.44z" fill="#ffeaa7"/></g><g><path d="m10 20.44v11.12c-.62.29-1.3.44-2 .44h-2v-12h2c.7 0 1.38.15 2 .44z" fill="#ffeaa7"/></g></g><g><path d="m58 11h-52c-2.757 0-5 2.243-5 5v28c0 2.757 2.243 5 5 5h1v1c0 1.654 1.346 3 3 3h6c1.654 0 3-1.346 3-3v-1h26v1c0 1.654 1.346 3 3 3h6c1.654 0 3-1.346 3-3v-1h1c2.757 0 5-2.243 5-5v-28c0-2.757-2.243-5-5-5zm-41 39c0 .551-.449 1-1 1h-6c-.551 0-1-.449-1-1v-1h8zm38 0c0 .551-.449 1-1 1h-6c-.551 0-1-.449-1-1v-1h8zm6-6c0 1.654-1.346 3-3 3h-52c-1.654 0-3-1.346-3-3v-28c0-1.654 1.346-3 3-3h52c1.654 0 3 1.346 3 3z"/><path d="m41 15h-34c-1.103 0-2 .897-2 2v18c0 1.103.897 2 2 2h34c1.103 0 2-.897 2-2v-18c0-1.103-.897-2-2-2zm0 2v2h-1c-1.557 0-3.021.606-4.121 1.707l-1.172 1.172c-1.446 1.446-3.968 1.446-5.414 0l-1.172-1.172c-1.1-1.101-2.564-1.707-4.121-1.707s-3.021.606-4.121 1.707l-1.172 1.172c-1.446 1.446-3.968 1.446-5.414 0l-1.172-1.172c-1.1-1.101-2.564-1.707-4.121-1.707h-1v-2zm-32 13.852c-.324.087-.656.148-1 .148h-1v-10h1c.344 0 .676.061 1 .148zm2-8.438.879.879c.341.341.719.628 1.121.87v3.674c-.402.243-.781.53-1.121.87l-.879.879zm4 2.496c.328.056.661.09 1 .09s.672-.034 1-.09v2.181c-.328-.057-.661-.091-1-.091s-.672.034-1 .09zm4-.747c.402-.243.781-.53 1.121-.87l.879-.879v7.172l-.879-.879c-.341-.341-.719-.628-1.121-.87zm4-2.985c.655-.168 1.345-.168 2 0v9.644c-.655.168-1.345.168-2 0zm4 1.236.879.879c.341.341.719.628 1.121.87v3.674c-.402.243-.781.53-1.121.87l-.879.879zm4 2.496c.328.056.661.09 1 .09s.672-.034 1-.09v2.181c-.328-.057-.661-.091-1-.091s-.672.034-1 .09zm4-.747c.402-.243.781-.53 1.121-.87l.879-.879v7.172l-.879-.879c-.341-.341-.719-.628-1.121-.87zm4-3.015c.324-.087.656-.148 1-.148h1l.001 10h-1.001c-.344 0-.676-.061-1-.148zm-32 13.852v-2h1c1.557 0 3.021-.606 4.121-1.707l1.172-1.172c1.446-1.446 3.968-1.446 5.414 0l1.172 1.172c1.1 1.101 2.564 1.707 4.121 1.707s3.021-.606 4.121-1.707l1.172-1.172c1.446-1.446 3.968-1.446 5.414 0l1.172 1.172c1.1 1.101 2.564 1.707 4.121 1.707h1.001v2z"/><path d="m8 39c-1.654 0-3 1.346-3 3s1.346 3 3 3 3-1.346 3-3-1.346-3-3-3zm0 4c-.551 0-1-.449-1-1s.449-1 1-1 1 .449 1 1-.449 1-1 1z"/><path d="m13 45h8v-6h-8zm2-4h4v2h-4z"/><path d="m23 45h8v-6h-8zm2-4h4v2h-4z"/><path d="m33 45h8v-6h-8zm2-4h4v2h-4z"/><path d="m57 15h2v2h-2z"/><path d="m45 15h2v2h-2z"/><path d="m49 15h2v2h-2z"/><path d="m53 15h2v2h-2z"/><path d="m49 19h2v2h-2z"/><path d="m45 19h2v2h-2z"/><path d="m53 19h2v2h-2z"/><path d="m57 19h2v2h-2z"/><path d="m53 23h2v2h-2z"/><path d="m49 23h2v2h-2z"/><path d="m57 23h2v2h-2z"/><path d="m45 23h2v2h-2z"/><path d="m45 27h14v2h-14z"/><path d="m48 31c-1.654 0-3 1.346-3 3s1.346 3 3 3 3-1.346 3-3-1.346-3-3-3zm0 4c-.551 0-1-.449-1-1s.449-1 1-1 1 .449 1 1-.449 1-1 1z"/><path d="m56 31c-1.654 0-3 1.346-3 3s1.346 3 3 3 3-1.346 3-3-1.346-3-3-3zm0 4c-.551 0-1-.449-1-1s.449-1 1-1 1 .449 1 1-.449 1-1 1z"/><path d="m48 39c-1.654 0-3 1.346-3 3s1.346 3 3 3 3-1.346 3-3-1.346-3-3-3zm0 4c-.551 0-1-.449-1-1s.449-1 1-1 1 .449 1 1-.449 1-1 1z"/><path d="m56 39c-1.654 0-3 1.346-3 3s1.346 3 3 3 3-1.346 3-3-1.346-3-3-3zm0 4c-.551 0-1-.449-1-1s.449-1 1-1 1 .449 1 1-.449 1-1 1z"/></g></g></svg>