<svg id="Layer_5" enable-background="new 0 0 64 64" height="512" viewBox="0 0 64 64" width="512" xmlns="http://www.w3.org/2000/svg" xmlns:xlink="http://www.w3.org/1999/xlink"><linearGradient id="SVGID_1_" gradientUnits="userSpaceOnUse" x1="32" x2="32" y1="63" y2="1"><stop offset="0" stop-color="#9f2fff"/><stop offset="1" stop-color="#0bb1d3"/></linearGradient><path d="m63 21c0 2.662-1.318 5.142-3.527 6.634l-1.119-1.658c1.657-1.12 2.646-2.979 2.646-4.976 0-3.309-2.691-6-6-6-.668 0-1.337.116-1.99.346l-1.043.367-.26-1.075c-1.091-4.497-5.082-7.638-9.707-7.638-2.529 0-4.948.956-6.811 2.693l-.958.893-.609-1.158c-2.084-3.965-6.155-6.428-10.622-6.428-5.59 0-10.389 3.803-11.669 9.246l-.189.805-.986-.043c-.052-.004-.104-.008-.156-.008-3.86 0-7 3.141-7 7 0 2.146.963 4.143 2.644 5.479l-1.245 1.564c-2.16-1.718-3.399-4.285-3.399-7.043 0-4.825 3.817-8.776 8.59-8.991 1.753-5.933 7.157-10.009 13.41-10.009 4.8 0 9.207 2.437 11.773 6.433 2.079-1.577 4.603-2.433 7.227-2.433 5.203 0 9.739 3.313 11.364 8.173.541-.115 1.088-.173 1.636-.173 4.411 0 8 3.589 8 8zm-40 17c0-4.963 4.038-9 9-9s9 4.037 9 9-4.038 9-9 9-9-4.037-9-9zm7.411-3c-.17.61-.297 1.28-.362 2h3.901c-.065-.72-.192-1.39-.362-2zm2.407-2c-.28-.564-.567-1.032-.818-1.395-.251.363-.538.831-.818 1.395zm-2.769 6c.065.72.192 1.39.362 2h3.177c.17-.61.297-1.28.362-2zm1.133 4c.28.564.567 1.032.818 1.395.251-.363.538-.831.818-1.395zm3.037 1.633c1.012-.34 1.923-.902 2.67-1.633h-1.869c-.252.619-.528 1.162-.801 1.633zm4.096-3.633c.297-.622.503-1.294.605-2h-2.958c-.053.712-.164 1.377-.309 2zm.605-4c-.102-.706-.308-1.378-.605-2h-2.662c.145.623.256 1.288.309 2zm-2.031-4c-.747-.731-1.658-1.294-2.67-1.633.273.471.549 1.014.801 1.633zm-7.108-1.633c-1.012.34-1.923.902-2.67 1.633h1.869c.252-.619.528-1.162.801-1.633zm-4.096 3.633c-.297.622-.503 1.294-.605 2h2.958c.053-.712.164-1.377.309-2zm-.605 4c.102.706.308 1.378.605 2h2.662c-.145-.623-.256-1.288-.309-2zm2.031 4c.747.731 1.658 1.294 2.67 1.633-.273-.471-.549-1.014-.801-1.633zm-9.111-22h3v-4h2v4h6v-4h2v4h6v-4h2v4h6v-4h2v4.184c1.161.414 2 1.514 2 2.816v3h4v2h-4v6h4v2h-4v6h4v2h-4v6h4v2h-4.184c-.414 1.161-1.514 2-2.816 2h-3v4h-2v-4h-6v4h-2v-4h-6v4h-2v-4h-6v4h-2v-4.184c-1.161-.414-2-1.514-2-2.816v-3h-4v-2h4v-6h-4v-2h4v-6h-4v-2h4v-6h-4v-2h4.184c.414-1.161 1.514-2 2.816-2zm-1 31c0 .552.449 1 1 1h28c.551 0 1-.448 1-1v-28c0-.552-.449-1-1-1h-28c-.551 0-1 .448-1 1zm28-1h-26v-26h26zm-2-24h-22v22h22zm-26 36h2v-2h-2zm6 0v-6h-2v6zm2 0h2v-2h-2zm6 0v-6h-2v6zm2 0h2v-2h-2zm6 0v-6h-2v6zm2 0h2v-2h-2zm4 0h2v-6h-2zm2-50h-2v2h2zm-6 0v6h2v-6zm-2 0h-2v2h2zm-6 0v6h2v-6zm-2 0h-2v2h2zm-6 0v6h2v-6zm-2 0h-2v2h2zm-4 0h-2v6h2zm38 40v-2h-2v2zm0-6h-6v2h6zm0-4h-2v2h2zm0-4h-6v2h6zm0-4h-2v2h2zm0-4h-6v2h6zm0-4h-2v2h2zm0-4h-6v2h6zm-50 0v2h2v-2zm0 6h6v-2h-6zm0 4h2v-2h-2zm0 4h6v-2h-6zm0 4h2v-2h-2zm0 4h6v-2h-6zm0 4h2v-2h-2zm0 4h6v-2h-6z" fill="url(#SVGID_1_)"/></svg>