<svg height="480pt" viewBox="0 0 480 480" width="480pt" xmlns="http://www.w3.org/2000/svg"><path d="m440 192v26.230469l-120.054688 40.027343 5.0625 15.167969 125.519532-41.839843c3.273437-1.089844 5.472656-4.136719 5.472656-7.585938v-32zm0 0" fill="#857970"/><path d="m19.371094 184.636719 14.3125-7.15625 43.242187 86.484375-14.3125 7.15625zm0 0" fill="#857970"/><path d="m360 224v-32h-16v24h-208v-24h-16v32c0 4.425781 3.585938 8 8 8h224c4.414062 0 8-3.574219 8-8zm0 0" fill="#857970"/><path d="m0 256h480v224h-480zm0 0" fill="#976947"/><path d="m0 320h480v96h-480zm0 0" fill="#c18e59"/><path d="m216 152h48v16h-48zm0 0" fill="#7ecb92"/><path d="m232 48h16v-16h16v-16h-16v-16h-16v16h-16v16h16zm0 0" fill="#7ecb92"/><path d="m96 368c0 8.835938-7.164062 16-16 16s-16-7.164062-16-16 7.164062-16 16-16 16 7.164062 16 16zm0 0" fill="#e8eff4"/><path d="m320 0h64v160h-64zm0 0" fill="#e4725f"/><path d="m320 128h64v32h-64zm0 0" fill="#857970"/><path d="m368 160v32h-32v-32" fill="#b8cbd9"/><path d="m416 0h64v160h-64zm0 0" fill="#e4725f"/><path d="m416 128h64v32h-64zm0 0" fill="#857970"/><path d="m464 160v32h-32v-32" fill="#b8cbd9"/><path d="m96 0h64v160h-64zm0 0" fill="#e4725f"/><path d="m96 128h64v32h-64zm0 0" fill="#857970"/><path d="m144 160v32h-32v-32" fill="#b8cbd9"/><path d="m0 0h64v160h-64zm0 0" fill="#e4725f"/><path d="m0 128h64v32h-64zm0 0" fill="#857970"/><path d="m48 160v32h-32v-32" fill="#b8cbd9"/><g fill="#e8eff4"><path d="m56 280h16v16h-16zm0 0"/><path d="m88 280h16v16h-16zm0 0"/><path d="m120 280h16v16h-16zm0 0"/><path d="m152 280h16v16h-16zm0 0"/><path d="m184 280h16v16h-16zm0 0"/><path d="m216 280h16v16h-16zm0 0"/><path d="m248 280h16v16h-16zm0 0"/><path d="m280 280h16v16h-16zm0 0"/><path d="m312 280h16v16h-16zm0 0"/><path d="m344 280h16v16h-16zm0 0"/><path d="m376 280h16v16h-16zm0 0"/><path d="m408 280h16v16h-16zm0 0"/><path d="m24 344h16v16h-16zm0 0"/><path d="m120 344h16v16h-16zm0 0"/><path d="m152 344h16v16h-16zm0 0"/><path d="m184 344h16v16h-16zm0 0"/><path d="m216 344h16v16h-16zm0 0"/><path d="m248 344h16v16h-16zm0 0"/><path d="m280 344h16v16h-16zm0 0"/><path d="m312 344h16v16h-16zm0 0"/><path d="m344 344h16v16h-16zm0 0"/><path d="m440 344h16v16h-16zm0 0"/><path d="m24 376h16v16h-16zm0 0"/><path d="m120 376h16v16h-16zm0 0"/><path d="m152 376h16v16h-16zm0 0"/><path d="m184 376h16v16h-16zm0 0"/><path d="m216 376h16v16h-16zm0 0"/><path d="m248 376h16v16h-16zm0 0"/><path d="m280 376h16v16h-16zm0 0"/><path d="m312 376h16v16h-16zm0 0"/><path d="m344 376h16v16h-16zm0 0"/><path d="m376 344h16v16h-16zm0 0"/><path d="m408 344h16v16h-16zm0 0"/><path d="m376 376h16v16h-16zm0 0"/><path d="m408 376h16v16h-16zm0 0"/><path d="m440 376h16v16h-16zm0 0"/><path d="m56 440h16v16h-16zm0 0"/><path d="m88 440h16v16h-16zm0 0"/><path d="m120 440h16v16h-16zm0 0"/><path d="m152 440h16v16h-16zm0 0"/><path d="m184 440h16v16h-16zm0 0"/><path d="m216 440h16v16h-16zm0 0"/><path d="m248 440h16v16h-16zm0 0"/><path d="m280 440h16v16h-16zm0 0"/><path d="m312 440h16v16h-16zm0 0"/><path d="m344 440h16v16h-16zm0 0"/><path d="m376 440h16v16h-16zm0 0"/><path d="m408 440h16v16h-16zm0 0"/></g></svg>