<?xml version="1.0" encoding="iso-8859-1"?>
<!-- Generator: Adobe Illustrator 19.0.0, SVG Export Plug-In . SVG Version: 6.00 Build 0)  -->
<svg version="1.1" id="Capa_1" xmlns="http://www.w3.org/2000/svg" xmlns:xlink="http://www.w3.org/1999/xlink" x="0px" y="0px"
	 viewBox="0 0 511.941 511.941" style="enable-background:new 0 0 511.941 511.941;" xml:space="preserve">
<path style="fill:#656D78;" d="M507.943,415.471v63.992c0,8.804-7.203,15.998-15.999,15.998H19.998
	c-8.796,0-15.999-7.194-15.999-15.998v-63.992c0-7.117,4.718-13.28,11.28-15.28c1.438-0.476,3.039-0.718,4.719-0.718h235.973
	h235.973C500.74,399.473,507.943,406.674,507.943,415.471z"/>
<g style="opacity:0.2;">
	<path style="fill:#FFFFFF;" d="M19.998,479.463v-63.992c0-7.117,4.718-13.28,11.279-15.28c1.438-0.476,3.039-0.718,4.719-0.718
		H19.998c-1.68,0-3.281,0.242-4.719,0.718c-6.562,2-11.28,8.163-11.28,15.28v63.992c0,8.804,7.203,15.998,15.999,15.998h15.998
		C27.2,495.461,19.998,488.267,19.998,479.463z"/>
</g>
<g style="opacity:0.2;">
	<path d="M491.944,415.471v63.992c0,7.124-4.718,13.279-11.279,15.279c-1.438,0.484-3.039,0.719-4.719,0.719h15.998
		c1.68,0,3.281-0.234,4.719-0.719c6.562-2,11.28-8.155,11.28-15.279v-63.992c0-8.797-7.203-15.998-15.999-15.998h-15.998
		C484.742,399.473,491.944,406.674,491.944,415.471z"/>
</g>
<g>
	<path style="fill:#A0D468;" d="M347.96,439.468c4.398,0,7.999,3.601,7.999,7.999c0,4.397-3.601,7.999-7.999,7.999
		c-4.397,0-7.999-3.602-7.999-7.999C339.961,443.069,343.563,439.468,347.96,439.468z"/>
	<path style="fill:#A0D468;" d="M299.966,439.468c4.397,0,7.999,3.601,7.999,7.999c0,4.397-3.602,7.999-7.999,7.999
		c-4.398,0-7.999-3.602-7.999-7.999C291.967,443.069,295.568,439.468,299.966,439.468z"/>
</g>
<g>
	<path style="fill:#AAB2BD;" d="M251.971,439.468c4.398,0,7.999,3.601,7.999,7.999c0,4.397-3.601,7.999-7.999,7.999
		c-4.398,0-7.999-3.602-7.999-7.999C243.972,443.069,247.574,439.468,251.971,439.468z"/>
	<path style="fill:#AAB2BD;" d="M203.977,439.468c4.398,0,7.999,3.601,7.999,7.999c0,4.397-3.601,7.999-7.999,7.999
		s-7.999-3.602-7.999-7.999C195.978,443.069,199.579,439.468,203.977,439.468z"/>
	<path style="fill:#AAB2BD;" d="M155.983,439.468c4.397,0,7.999,3.601,7.999,7.999c0,4.397-3.602,7.999-7.999,7.999
		c-4.398,0-7.999-3.602-7.999-7.999C147.984,443.069,151.584,439.468,155.983,439.468z"/>
</g>
<g style="opacity:0.5;">
	<path style="fill:#FFFFFF;" d="M155.983,447.467c0-2.914,1.656-5.359,3.999-6.766c-1.195-0.71-2.515-1.233-3.999-1.233
		c-4.398,0-7.999,3.601-7.999,7.999c0,4.397,3.601,7.999,7.999,7.999c1.484,0,2.804-0.523,3.999-1.234
		C157.638,452.833,155.983,450.381,155.983,447.467z"/>
</g>
<g style="opacity:0.5;">
	<path style="fill:#FFFFFF;" d="M203.977,447.467c0-2.914,1.656-5.359,4-6.766c-1.195-0.71-2.515-1.233-4-1.233
		c-4.398,0-7.999,3.601-7.999,7.999c0,4.397,3.601,7.999,7.999,7.999c1.484,0,2.805-0.523,4-1.234
		C205.633,452.833,203.977,450.381,203.977,447.467z"/>
</g>
<g style="opacity:0.5;">
	<path style="fill:#FFFFFF;" d="M251.971,447.467c0-2.914,1.656-5.359,4-6.766c-1.195-0.71-2.516-1.233-4-1.233
		c-4.398,0-7.999,3.601-7.999,7.999c0,4.397,3.601,7.999,7.999,7.999c1.484,0,2.804-0.523,4-1.234
		C253.627,452.833,251.971,450.381,251.971,447.467z"/>
</g>
<g style="opacity:0.5;">
	<path style="fill:#FFFFFF;" d="M299.966,447.467c0-2.914,1.656-5.359,4-6.766c-1.195-0.71-2.516-1.233-4-1.233
		c-4.398,0-7.999,3.601-7.999,7.999c0,4.397,3.601,7.999,7.999,7.999c1.484,0,2.805-0.523,4-1.234
		C301.622,452.833,299.966,450.381,299.966,447.467z"/>
</g>
<g style="opacity:0.5;">
	<path style="fill:#FFFFFF;" d="M347.96,447.467c0-2.914,1.656-5.359,4-6.766c-1.195-0.71-2.516-1.233-4-1.233
		c-4.397,0-7.999,3.601-7.999,7.999c0,4.397,3.602,7.999,7.999,7.999c1.484,0,2.805-0.523,4-1.234
		C349.617,452.833,347.96,450.381,347.96,447.467z"/>
</g>
<path style="fill:#5D9CEC;" d="M274.93,344.119c28.317,1.922,49.033,8.077,49.033,15.357c0,8.804-30.396,15.998-67.992,15.998
	c-37.519,0-67.992-7.194-67.992-15.998c0-8.796,30.473-15.998,67.992-15.998C262.533,343.479,268.931,343.721,274.93,344.119z"/>
<g style="opacity:0.3;">
	<path style="fill:#FFFFFF;" d="M203.977,359.477c0-8.132,26.06-14.889,59.642-15.865c-2.523-0.07-5.062-0.133-7.647-0.133
		c-37.519,0-67.992,7.202-67.992,15.998c0,8.804,30.473,15.998,67.992,15.998c2.711,0,5.374-0.047,8.007-0.117
		C230.224,374.42,203.977,367.64,203.977,359.477z"/>
</g>
<g style="opacity:0.2;">
	<path d="M307.965,359.477c0,8.14-26.06,14.889-59.642,15.865c2.523,0.07,5.062,0.133,7.647,0.133
		c37.519,0,67.992-7.194,67.992-15.998c0-8.796-30.474-15.998-67.992-15.998c-2.711,0-5.374,0.047-8.007,0.125
		C281.718,344.541,307.965,351.314,307.965,359.477z"/>
</g>
<path style="fill:#5D9CEC;" d="M51.994,431.469c8.796,0,15.998,7.202,15.998,15.998c0,8.804-7.202,15.998-15.998,15.998
	c-8.882,0-15.998-7.194-15.998-15.998C35.996,438.671,43.113,431.469,51.994,431.469z"/>
<g style="opacity:0.3;">
	<path style="fill:#FFFFFF;" d="M43.995,447.467c0-7.413,5.077-13.639,11.983-15.428c-1.281-0.336-2.601-0.57-3.984-0.57
		c-8.882,0-15.998,7.202-15.998,15.998c0,8.804,7.116,15.998,15.998,15.998c1.383,0,2.703-0.234,3.984-0.563
		C49.073,461.106,43.995,454.888,43.995,447.467z"/>
</g>
<g style="opacity:0.2;">
	<path d="M59.993,447.467c0,7.421-5.078,13.639-11.983,15.436c1.281,0.328,2.602,0.563,3.984,0.563
		c8.882,0,15.998-7.194,15.998-15.998c0-8.796-7.116-15.998-15.998-15.998c-1.383,0-2.703,0.234-3.984,0.57
		C54.916,433.828,59.993,440.054,59.993,447.467z"/>
</g>
<g style="opacity:0.2;">
	<polygon points="475.946,431.469 475.946,463.465 459.948,463.465 443.95,463.465 427.951,463.465 427.951,431.469 	"/>
</g>
<polygon style="fill:#AAB2BD;" points="267.97,135.506 267.97,311.483 267.97,319.482 243.972,319.482 243.972,311.483 
	243.972,135.506 255.971,115.509 "/>
<g style="opacity:0.5;">
	<polygon style="fill:#FFFFFF;" points="251.971,135.506 259.97,122.176 255.971,115.509 243.972,135.506 243.972,311.483 
		243.972,319.482 251.971,319.482 251.971,311.483 	"/>
</g>
<g style="opacity:0.2;">
	<polygon points="259.97,135.506 255.971,128.843 259.97,122.168 267.97,135.506 267.97,311.483 267.97,319.482 259.97,319.482 
		259.97,311.483 	"/>
</g>
<path style="fill:#656D78;" d="M449.066,327.481c-5.116-7.999-12.639-7.999-21.114-7.999h-31.997H355.96h-39.995H275.97h-7.999
	h-23.998h-8h-39.995h-39.995h-39.996H83.991c-8.476,0-15.998,0-21.114,7.999L12,391.473l-4.343,13.882
	c1.438-0.484,10.663-5.882,12.343-5.882h235.971h235.973l11.929,5.397l-3.93-13.397L449.066,327.481z M255.971,375.475
	c-37.519,0-67.992-7.194-67.992-15.998c0-8.796,30.473-15.998,67.992-15.998c6.562,0,12.96,0.242,18.959,0.641
	c28.317,1.922,49.033,8.077,49.033,15.357C323.963,368.281,293.568,375.475,255.971,375.475z"/>
<g style="opacity:0.2;">
	<path d="M449.066,327.481c-5.116-7.999-12.639-7.999-21.114-7.999h-31.997H355.96h-39.995H275.97h-7.999h-23.998h-8h-39.995
		h-39.995h-39.996H83.991c-8.476,0-15.998,0-21.114,7.999L12,391.473l-4.343,13.882c1.438-0.484,10.663-5.882,12.343-5.882h235.971
		h235.973l11.929,5.397l-3.93-13.397L449.066,327.481z M255.971,375.475c-37.519,0-67.992-7.194-67.992-15.998
		c0-8.796,30.473-15.998,67.992-15.998c6.562,0,12.96,0.242,18.959,0.641c28.317,1.922,49.033,8.077,49.033,15.357
		C323.963,368.281,293.568,375.475,255.971,375.475z"/>
</g>
<g style="opacity:0.2;">
	<path style="fill:#FFFFFF;" d="M21.748,399.473l57.126-71.992c5.116-7.999,12.639-7.999,21.114-7.999H83.991
		c-8.476,0-15.998,0-21.114,7.999L12,391.473l-4.343,13.882c1.438-0.484,10.663-5.882,12.343-5.882H21.748z"/>
</g>
<g style="opacity:0.2;">
	<path d="M490.195,399.473l-57.127-71.992c-5.116-7.999-12.639-7.999-21.114-7.999h15.998c8.476,0,15.998,0,21.114,7.999
		l50.877,63.992l4.344,13.882c-1.438-0.484-10.663-5.882-12.343-5.882H490.195z"/>
</g>
<g style="opacity:0.2;">
	<rect x="427.951" y="431.471" width="7.999" height="31.996"/>
</g>
<g style="opacity:0.2;">
	<rect x="467.951" y="431.471" style="fill:#FFFFFF;" width="7.999" height="31.996"/>
</g>
<g>
	<path style="fill:#3A3847;" d="M491.944,499.461H19.998C8.968,499.461,0,490.493,0,479.463v-63.992
		c0-8.719,5.804-16.568,14.115-19.107c1.734-0.578,3.75-0.891,5.883-0.891h471.945c11.03,0,19.998,8.976,19.998,19.998v63.992
		C511.942,490.493,502.974,499.461,491.944,499.461z M19.998,403.472c-1.273,0-2.43,0.172-3.453,0.516
		c-5.069,1.547-8.546,6.257-8.546,11.483v63.992c0,6.616,5.382,11.999,11.999,11.999h471.945c6.616,0,11.999-5.383,11.999-11.999
		v-63.992c0-6.617-5.383-11.999-11.999-11.999H19.998z"/>
	<path style="fill:#3A3847;" d="M11.999,395.473c-0.875,0-1.75-0.281-2.492-0.867c-1.727-1.375-2.016-3.891-0.641-5.616
		l50.877-63.993c1.383-1.742,3.898-2,5.624-0.648c1.727,1.375,2.016,3.898,0.641,5.625l-50.877,63.991
		C14.342,394.957,13.171,395.473,11.999,395.473z"/>
	<path style="fill:#3A3847;" d="M499.943,395.473c-1.172,0-2.343-0.516-3.132-1.508l-50.877-63.992
		c-1.375-1.727-1.086-4.25,0.641-5.625c1.741-1.352,4.249-1.094,5.624,0.648l50.877,63.993c1.375,1.726,1.086,4.241-0.641,5.616
		C501.693,395.192,500.818,395.473,499.943,395.473z"/>
	<path style="fill:#3A3847;" d="M427.951,323.481H83.991c-2.21,0-4-1.789-4-3.999c0-2.211,1.789-4,4-4h343.96
		c2.21,0,3.999,1.789,3.999,4C431.95,321.692,430.161,323.481,427.951,323.481z"/>
	<path style="fill:#3A3847;" d="M62.876,331.481c-0.742,0-1.484-0.203-2.156-0.625c-1.859-1.195-2.406-3.664-1.211-5.531
		c6.296-9.843,15.537-9.843,24.481-9.843c2.211,0,4,1.789,4,4c0,2.21-1.789,3.999-4,3.999c-8.819,0-13.99,0.289-17.748,6.156
		C65.485,330.832,64.188,331.481,62.876,331.481z"/>
	<path style="fill:#3A3847;" d="M449.066,331.481c-1.313,0-2.608-0.648-3.366-1.844c-3.758-5.867-8.929-6.156-17.748-6.156
		c-2.211,0-4-1.789-4-3.999c0-2.211,1.789-4,4-4c8.944,0,18.186,0,24.481,9.843c1.195,1.867,0.648,4.336-1.211,5.531
		C450.55,331.278,449.808,331.481,449.066,331.481z"/>
	<path style="fill:#3A3847;" d="M255.971,379.475c-24.903,0-71.992-4.18-71.992-19.998s47.088-19.998,71.992-19.998
		c6.327,0,12.796,0.219,19.225,0.648c15.865,1.078,52.767,5.117,52.767,19.35C327.962,375.295,280.874,379.475,255.971,379.475z
		 M255.971,347.479c-39.839,0-63.172,7.943-63.993,12.029c0.82,4.023,24.154,11.968,63.993,11.968
		c39.878,0,63.188-7.937,63.993-12.022c-0.406-2.117-12.358-9.108-45.308-11.342C268.415,347.69,262.126,347.479,255.971,347.479z"
		/>
	<path style="fill:#3A3847;" d="M275.969,363.477h-39.996c-2.21,0-3.999-1.789-3.999-4s1.789-4,3.999-4h39.996
		c2.21,0,3.999,1.789,3.999,4S278.179,363.477,275.969,363.477z"/>
	<path style="fill:#3A3847;" d="M115.987,331.481c-2.21,0-4-1.789-4-4v-7.999c0-2.211,1.789-4,4-4s4,1.789,4,4v7.999
		C119.987,329.692,118.198,331.481,115.987,331.481z"/>
	<path style="fill:#3A3847;" d="M155.983,331.481c-2.211,0-4-1.789-4-4v-7.999c0-2.211,1.789-4,4-4c2.21,0,3.999,1.789,3.999,4
		v7.999C159.982,329.692,158.193,331.481,155.983,331.481z"/>
	<path style="fill:#3A3847;" d="M195.978,331.481c-2.211,0-4-1.789-4-4v-7.999c0-2.211,1.789-4,4-4s4,1.789,4,4v7.999
		C199.977,329.692,198.189,331.481,195.978,331.481z"/>
	<path style="fill:#3A3847;" d="M235.973,331.481c-2.21,0-3.999-1.789-3.999-4v-7.999c0-2.211,1.789-4,3.999-4c2.211,0,4,1.789,4,4
		v7.999C239.973,329.692,238.184,331.481,235.973,331.481z"/>
	<path style="fill:#3A3847;" d="M275.969,331.481c-2.211,0-4-1.789-4-4v-7.999c0-2.211,1.789-4,4-4c2.21,0,3.999,1.789,3.999,4
		v7.999C279.968,329.692,278.179,331.481,275.969,331.481z"/>
	<path style="fill:#3A3847;" d="M315.964,331.481c-2.211,0-4-1.789-4-4v-7.999c0-2.211,1.789-4,4-4s4,1.789,4,4v7.999
		C319.964,329.692,318.175,331.481,315.964,331.481z"/>
	<path style="fill:#3A3847;" d="M355.959,331.481c-2.21,0-3.999-1.789-3.999-4v-7.999c0-2.211,1.789-4,3.999-4c2.211,0,4,1.789,4,4
		v7.999C359.959,329.692,358.17,331.481,355.959,331.481z"/>
	<path style="fill:#3A3847;" d="M395.954,331.481c-2.21,0-3.999-1.789-3.999-4v-7.999c0-2.211,1.789-4,3.999-4c2.211,0,4,1.789,4,4
		v7.999C399.954,329.692,398.165,331.481,395.954,331.481z"/>
	<path style="fill:#3A3847;" d="M51.994,467.465c-11.03,0-19.998-8.969-19.998-19.998c0-11.022,8.968-19.998,19.998-19.998
		s19.998,8.976,19.998,19.998C71.992,458.496,63.024,467.465,51.994,467.465z M51.994,435.468c-6.616,0-11.999,5.382-11.999,11.999
		c0,6.616,5.383,11.998,11.999,11.998c6.616,0,11.999-5.382,11.999-11.998C63.993,440.85,58.611,435.468,51.994,435.468z"/>
	<path style="fill:#3A3847;" d="M475.946,467.465h-47.995c-2.211,0-4-1.789-4-4v-31.996c0-2.211,1.789-4,4-4h47.994
		c2.211,0,4,1.789,4,4v31.996C479.946,465.676,478.157,467.465,475.946,467.465z M431.95,459.465h39.996v-23.997H431.95V459.465z"/>
	<path style="fill:#3A3847;" d="M443.95,467.465c-2.211,0-3.999-1.789-3.999-4v-4c0-2.21,1.788-3.999,3.999-3.999
		s3.999,1.789,3.999,3.999v4C447.949,465.676,446.16,467.465,443.95,467.465z"/>
	<path style="fill:#3A3847;" d="M459.948,467.465c-2.211,0-3.999-1.789-3.999-4v-4c0-2.21,1.788-3.999,3.999-3.999
		s3.999,1.789,3.999,3.999v4C463.947,465.676,462.159,467.465,459.948,467.465z"/>
	<path style="fill:#3A3847;" d="M155.983,459.465c-6.617,0-11.999-5.382-11.999-11.998c0-6.617,5.382-11.999,11.999-11.999
		c6.616,0,11.998,5.382,11.998,11.999C167.981,454.083,162.599,459.465,155.983,459.465z M155.983,443.467c-2.203,0-4,1.797-4,4
		c0,2.211,1.797,3.999,4,3.999s3.999-1.788,3.999-3.999C159.982,445.264,158.185,443.467,155.983,443.467z"/>
	<path style="fill:#3A3847;" d="M203.977,459.465c-6.616,0-11.999-5.382-11.999-11.998c0-6.617,5.382-11.999,11.999-11.999
		s11.999,5.382,11.999,11.999C215.976,454.083,210.593,459.465,203.977,459.465z M203.977,443.467c-2.203,0-4,1.797-4,4
		c0,2.211,1.796,3.999,4,3.999s4-1.788,4-3.999C207.976,445.264,206.18,443.467,203.977,443.467z"/>
	<path style="fill:#3A3847;" d="M251.971,459.465c-6.617,0-11.999-5.382-11.999-11.998c0-6.617,5.382-11.999,11.999-11.999
		c6.617,0,11.999,5.382,11.999,11.999C263.97,454.083,258.588,459.465,251.971,459.465z M251.971,443.467c-2.203,0-4,1.797-4,4
		c0,2.211,1.797,3.999,4,3.999s4-1.788,4-3.999C255.971,445.264,254.174,443.467,251.971,443.467z"/>
	<path style="fill:#3A3847;" d="M299.966,459.465c-6.617,0-11.999-5.382-11.999-11.998c0-6.617,5.382-11.999,11.999-11.999
		c6.616,0,11.998,5.382,11.998,11.999C311.964,454.083,306.582,459.465,299.966,459.465z M299.966,443.467c-2.203,0-4,1.797-4,4
		c0,2.211,1.797,3.999,4,3.999s4-1.788,4-3.999C303.966,445.264,302.169,443.467,299.966,443.467z"/>
	<path style="fill:#3A3847;" d="M347.96,459.465c-6.616,0-11.998-5.382-11.998-11.998c0-6.617,5.382-11.999,11.998-11.999
		c6.617,0,11.999,5.382,11.999,11.999C359.959,454.083,354.577,459.465,347.96,459.465z M347.96,443.467
		c-2.203,0-3.999,1.797-3.999,4c0,2.211,1.796,3.999,3.999,3.999s4-1.788,4-3.999C351.96,445.264,350.163,443.467,347.96,443.467z"
		/>
	<path style="fill:#3A3847;" d="M243.972,315.482c-2.21,0-4-1.788-4-3.999V135.506c0-2.21,1.789-3.999,4-3.999s4,1.789,4,3.999
		v175.977C247.972,313.694,246.183,315.482,243.972,315.482z"/>
	<path style="fill:#3A3847;" d="M267.97,315.482c-2.211,0-4-1.788-4-3.999V135.506c0-2.21,1.789-3.999,4-3.999
		c2.21,0,3.999,1.789,3.999,3.999v175.977C271.969,313.694,270.18,315.482,267.97,315.482z"/>
	<path style="fill:#3A3847;" d="M243.972,139.506c-0.703,0-1.414-0.184-2.054-0.57c-1.898-1.137-2.516-3.593-1.375-5.488
		l11.999-19.998c1.14-1.898,3.617-2.5,5.484-1.371c1.897,1.137,2.515,3.594,1.374,5.488l-11.998,19.998
		C246.652,138.814,245.324,139.506,243.972,139.506z"/>
	<path style="fill:#3A3847;" d="M267.97,139.506c-1.352,0-2.68-0.691-3.43-1.941l-11.999-19.998
		c-1.141-1.894-0.523-4.351,1.375-5.488c1.875-1.129,4.352-0.527,5.483,1.371l11.999,19.998c1.141,1.895,0.523,4.351-1.375,5.488
		C269.384,139.322,268.673,139.506,267.97,139.506z"/>
	<path style="fill:#3A3847;" d="M303.083,150.625c-1.023,0-2.047-0.39-2.828-1.171c-1.563-1.563-1.563-4.094,0-5.656
		c7.562-7.562,11.732-17.607,11.732-28.29s-4.171-20.729-11.732-28.29c-1.563-1.563-1.563-4.093,0-5.655
		c1.563-1.563,4.093-1.563,5.655,0c9.077,9.073,14.077,21.126,14.077,33.945c0,12.818-5,24.872-14.077,33.945
		C305.129,150.235,304.106,150.625,303.083,150.625z"/>
	<path style="fill:#3A3847;" d="M208.859,150.625c-1.023,0-2.046-0.39-2.828-1.171c-9.077-9.073-14.077-21.127-14.077-33.945
		c0-12.819,5-24.872,14.077-33.945c1.563-1.563,4.093-1.563,5.655,0c1.563,1.562,1.563,4.093,0,5.655
		c-7.562,7.562-11.733,17.607-11.733,28.29c0,10.682,4.171,20.728,11.733,28.29c1.563,1.562,1.563,4.093,0,5.656
		C210.906,150.235,209.883,150.625,208.859,150.625z"/>
	<path style="fill:#3A3847;" d="M341.719,173.263c-1.023,0-2.047-0.391-2.828-1.172c-1.562-1.563-1.562-4.093,0-5.655
		c28.075-28.083,28.075-73.773,0-101.855c-1.562-1.563-1.562-4.094,0-5.656c1.563-1.562,4.094-1.562,5.655,0
		c31.2,31.2,31.2,81.968,0,113.167C343.766,172.873,342.742,173.263,341.719,173.263z"/>
	<path style="fill:#3A3847;" d="M170.223,173.263c-1.023,0-2.047-0.391-2.828-1.172c-31.2-31.199-31.2-81.967,0-113.167
		c1.562-1.562,4.093-1.562,5.656,0c1.562,1.563,1.562,4.094,0,5.656c-28.075,28.083-28.075,73.772,0,101.855
		c1.562,1.562,1.562,4.093,0,5.655C172.27,172.873,171.246,173.263,170.223,173.263z"/>
	<path style="fill:#3A3847;" d="M380.277,195.897c-1.023,0-2.046-0.391-2.827-1.171c-1.563-1.563-1.563-4.093,0-5.656
		c19.669-19.669,30.504-45.795,30.504-73.562s-10.835-53.893-30.504-73.563c-1.563-1.562-1.563-4.093,0-5.655
		c1.562-1.563,4.093-1.563,5.655,0c21.186,21.181,32.848,49.314,32.848,79.218c0,29.902-11.662,58.036-32.848,79.217
		C382.324,195.507,381.3,195.897,380.277,195.897z"/>
	<path style="fill:#3A3847;" d="M131.587,195.897c-1.023,0-2.046-0.391-2.828-1.175c-43.604-43.679-43.604-114.749,0-158.427
		c1.563-1.57,4.093-1.563,5.655-0.008c1.563,1.563,1.563,4.093,0,5.655c-40.487,40.566-40.487,106.566,0,147.132
		c1.563,1.563,1.563,4.093,0,5.656C133.633,195.507,132.61,195.897,131.587,195.897z"/>
	<path style="fill:#3A3847;" d="M92.95,218.536c-1.023,0-2.047-0.391-2.828-1.172c-56.087-56.166-56.087-147.546,0-203.711
		c1.562-1.563,4.093-1.559,5.656-0.004c1.562,1.562,1.562,4.093,0,5.659c-52.971,53.045-52.971,139.355,0,192.4
		c1.562,1.566,1.562,4.097,0,5.66C94.997,218.145,93.974,218.536,92.95,218.536z"/>
	<path style="fill:#3A3847;" d="M418.913,218.536c-1.023,0-2.047-0.391-2.828-1.172c-1.563-1.563-1.563-4.094,0-5.656
		c25.708-25.708,39.863-59.872,39.863-96.2s-14.155-70.492-39.863-96.2c-1.563-1.563-1.563-4.093,0-5.655
		c1.563-1.563,4.094-1.563,5.656,0c56.165,56.161,56.165,147.549,0,203.711C420.96,218.145,419.937,218.536,418.913,218.536z"/>
</g>
<g>
</g>
<g>
</g>
<g>
</g>
<g>
</g>
<g>
</g>
<g>
</g>
<g>
</g>
<g>
</g>
<g>
</g>
<g>
</g>
<g>
</g>
<g>
</g>
<g>
</g>
<g>
</g>
<g>
</g>
</svg>
