<?xml version="1.0" encoding="iso-8859-1"?>
<!-- Generator: Adobe Illustrator 19.0.0, SVG Export Plug-In . SVG Version: 6.00 Build 0)  -->
<svg version="1.1" id="Capa_1" xmlns="http://www.w3.org/2000/svg" xmlns:xlink="http://www.w3.org/1999/xlink" x="0px" y="0px"
	 viewBox="0 0 480 480" style="enable-background:new 0 0 480 480;" xml:space="preserve">
<g>
	<rect x="48" y="120.252" style="fill:#E7E7E7;" width="384" height="32"/>
	<rect x="48" y="264.252" style="fill:#E7E7E7;" width="384" height="32"/>
</g>
<path style="fill:#2BB0AF;" d="M448,120.252v-112H32v112h16h384H448z M416,88.252H304v-48h112V88.252z"/>
<rect x="304" y="40.252" style="fill:#EFC95B;" width="112" height="48"/>
<path style="fill:#2BB0AF;" d="M448,264.252v-112h-16H48H32v112h16h384H448z M416,232.252H304v-48h112V232.252z"/>
<rect x="304" y="184.252" style="fill:#EFC95B;" width="112" height="48"/>
<path style="fill:#2BB0AF;" d="M32,296.252v112h416v-112h-16H48H32z M304,328.252h112v48H304V328.252z"/>
<rect x="304" y="328.252" style="fill:#EFC95B;" width="112" height="48"/>
<g>
	<rect x="56" y="32.252" style="fill:#383838;" width="32" height="16"/>
	<rect x="104" y="32.252" style="fill:#383838;" width="32" height="16"/>
	<rect x="152" y="32.252" style="fill:#383838;" width="32" height="16"/>
	<rect x="200" y="32.252" style="fill:#383838;" width="32" height="16"/>
	<rect x="248" y="32.252" style="fill:#383838;" width="32" height="16"/>
	<rect x="56" y="64.252" style="fill:#383838;" width="32" height="16"/>
	<rect x="104" y="64.252" style="fill:#383838;" width="32" height="16"/>
	<rect x="152" y="64.252" style="fill:#383838;" width="32" height="16"/>
	<rect x="200" y="64.252" style="fill:#383838;" width="32" height="16"/>
	<rect x="248" y="64.252" style="fill:#383838;" width="32" height="16"/>
	<rect x="56" y="176.252" style="fill:#383838;" width="32" height="16"/>
	<rect x="104" y="176.252" style="fill:#383838;" width="32" height="16"/>
	<rect x="152" y="176.252" style="fill:#383838;" width="32" height="16"/>
	<rect x="200" y="176.252" style="fill:#383838;" width="32" height="16"/>
	<rect x="248" y="176.252" style="fill:#383838;" width="32" height="16"/>
	<rect x="56" y="208.252" style="fill:#383838;" width="32" height="16"/>
	<rect x="104" y="208.252" style="fill:#383838;" width="32" height="16"/>
	<rect x="152" y="208.252" style="fill:#383838;" width="32" height="16"/>
	<rect x="200" y="208.252" style="fill:#383838;" width="32" height="16"/>
	<rect x="248" y="208.252" style="fill:#383838;" width="32" height="16"/>
	<rect x="56" y="320.252" style="fill:#383838;" width="32" height="16"/>
	<rect x="104" y="320.252" style="fill:#383838;" width="32" height="16"/>
	<rect x="152" y="320.252" style="fill:#383838;" width="32" height="16"/>
	<rect x="200" y="320.252" style="fill:#383838;" width="32" height="16"/>
	<rect x="248" y="320.252" style="fill:#383838;" width="32" height="16"/>
	<rect x="56" y="352.252" style="fill:#383838;" width="32" height="16"/>
	<rect x="104" y="352.252" style="fill:#383838;" width="32" height="16"/>
	<rect x="152" y="352.252" style="fill:#383838;" width="32" height="16"/>
	<rect x="200" y="352.252" style="fill:#383838;" width="32" height="16"/>
	<rect x="248" y="352.252" style="fill:#383838;" width="32" height="16"/>
	<path style="fill:#383838;" d="M416,32.252H304c-4.416,0-8,3.584-8,8v48c0,4.416,3.584,8,8,8h112c4.416,0,8-3.584,8-8v-48
		C424,35.836,420.416,32.252,416,32.252z M408,80.252h-96v-32h96V80.252z"/>
	<path style="fill:#383838;" d="M416,176.252H304c-4.416,0-8,3.584-8,8v48c0,4.416,3.584,8,8,8h112c4.416,0,8-3.584,8-8v-48
		C424,179.836,420.416,176.252,416,176.252z M408,224.252h-96v-32h96V224.252z"/>
	<path style="fill:#383838;" d="M416,320.252H304c-4.416,0-8,3.584-8,8v48c0,4.416,3.584,8,8,8h112c4.416,0,8-3.584,8-8v-48
		C424,323.836,420.416,320.252,416,320.252z M408,368.252h-96v-32h96V368.252z"/>
	<path style="fill:#383838;" d="M248,416.252h200c4.416,0,8-3.584,8-8v-112c0-4.416-3.584-8-8-8h-8v-16h8c4.416,0,8-3.584,8-8v-112
		c0-4.416-3.584-8-8-8h-8v-16h8c4.416,0,8-3.584,8-8v-112c0-4.416-3.584-8-8-8H32c-4.416,0-8,3.584-8,8v112c0,4.416,3.584,8,8,8h8
		v16h-8c-4.416,0-8,3.584-8,8v112c0,4.416,3.584,8,8,8h8v16h-8c-4.416,0-8,3.584-8,8v112c0,4.416,3.584,8,8,8h200v47.496H0v16h480
		v-16H248V416.252z M40,16.252h400v96H40V16.252z M56,128.252h368v16H56V128.252z M40,160.252h400v96H40V160.252z M56,272.252h368
		v16H56V272.252z M40,304.252h400v96H40V304.252z"/>
</g>
<g>
</g>
<g>
</g>
<g>
</g>
<g>
</g>
<g>
</g>
<g>
</g>
<g>
</g>
<g>
</g>
<g>
</g>
<g>
</g>
<g>
</g>
<g>
</g>
<g>
</g>
<g>
</g>
<g>
</g>
</svg>
