<svg id="Layer_1" enable-background="new 0 0 512 512" height="512" viewBox="0 0 512 512" width="512" xmlns="http://www.w3.org/2000/svg"><g><g><path d="m466.71 399.378c8.228-11.699 15.441-24.086 21.546-37.033 15.374-32.61 23.744-68.759 23.744-106.345 0-137.776-111.69-249.466-249.466-249.466-42.528 0-84.832 10.693-123 32.393-.077.044-.154.088-.231.132-13.878 7.909-22.338 22.765-22.338 38.738v321.582h349.745z" fill="#ffc305"/></g><path d="m188.899 321.607c-54.974-54.974-80.279-130.92-71.296-206.15l.008-.008c3.136-26.266 10.452-52.125 21.929-76.512-7.742 4.401-15.318 9.245-22.687 14.555h-.01c-38.464 27.72-68.764 66.229-86.405 110.874v.017c-30.598 77.427-19.481 158.472 19.646 222.125l14.178 7.276c39.892 57.634 106.708 93.113 187.237 96.083l29.138 14.952c51.142-3.668 98.013-22.756 135.996-52.635h.011c30.759-24.197 55.162-55.009 71.589-89.85-95.161 53.95-218.223 40.383-299.334-40.727z" fill="#ffa10b"/><g><path d="m117.977 379.636c-24.288 0-47.328 2.492-68.026 6.952 43.906 71.321 122.686 118.878 212.582 118.878 6.089 0 12.123-.229 18.103-.658v-49.153c0-41.984-72.825-76.019-162.659-76.019z" fill="#9b14aa"/><g><path d="m165.208 382.896c-14.949-2.117-30.803-3.259-47.23-3.259-21.133 0-41.323 1.885-59.846 5.312-1.646 2.389-3.13 4.897-4.455 7.499 4.313 6.588 8.928 12.959 13.827 19.094l52.905 49.493c8.803 6.114 18.019 11.676 27.597 16.635 18.199-11.721 30.261-32.146 30.261-55.401 0-14.763-4.857-28.39-13.059-39.373z" fill="#6e289b"/><path d="m114.512 368.408v88.405c2.525 1.864 5.086 3.683 7.682 5.453 19.74-4.584 34.455-22.271 34.455-43.406v-50.452z" fill="#ffbe82"/><path d="m67.503 327.308v84.234c14.14 17.706 30.643 33.438 49.027 46.732v-46.726c0-22.158 17.962-40.12 40.12-40.12v-44.12z" fill="#ff965a"/><path d="m170.196 251.886h108.671v-84.285h-188.135v177.225c0 1.007-.099 1.948-.268 2.84h143.732c23.734-14.595 40.455-39.476 43.971-68.432h-107.971c-17.626 0-17.597-27.348 0-27.348z" fill="#ffbe82"/><path d="m159.172 180.3c.109-.001.218-.002.328-.003.148-.001.295-.001.443-.001h75.597c15.44 0 30.105-3.313 43.327-9.265v-96.402s-75.808-.993-101.612-1.739c-21.102-.61-32.171 6.411-33.731 5.724-.882-.388-1.949-.086-2.327.8-.687 1.608-7.555 2.39-22.02 12.237-31.48 21.403-51.673 57.488-51.673 97.566v144.949 27.324h117.704c19.496 0 37.599-5.959 52.592-16.152h-62.298c-24.314 0-44.024-19.71-44.024-44.024v-52.091c0-1.121.909-2.03 2.03-2.03.909 0 1.691.609 1.952 1.48 5.522 18.441 22.617 31.882 42.855 31.882h48.972 29.757 20.96c.565-4.161.864-8.407.864-12.723v-76.743h-21.824-29.757-48.972c-17.075 0-31.912 9.57-39.45 23.637l-7.387-6.01c-.002-15.417 12.282-28.211 27.694-28.416z" fill="#ff965a"/><path d="m82.248 65.724c-8.894 0-17.099 5.942-23.698 13.906-9.266 11.183-14.056 25.409-14.056 39.932v179.223h32.487v-44.433c0-10.321 1.887-20.2 5.333-29.314 2.214-5.855 10.911-4.251 10.911 2.009v28.299c14.406 0 26.084-11.678 26.084-26.084v-17.083c0-22.294 17.897-40.67 40.191-40.787.147-.001.295-.001.443-.001h75.597c58.358 0 105.667-47.309 105.667-105.667z" fill="#783c28"/><g fill="#5a2d19"><path d="m274.277 153.128h-75.597c-.148 0-.295 0-.443.001-13.995.073-26.254 7.344-33.444 18.261h70.746c23.818 0 45.793-7.883 63.465-21.178-7.933 1.902-16.211 2.916-24.727 2.916z"/><path d="m45.786 237.722v-112.622c0-20.246 15.793-36.797 35.731-38.023v-.147c0-7.808 2.277-15.08 6.189-21.207h-5.458c-21.798 0-39.469 17.671-39.469 39.469v.146c-19.938 1.226-35.731 17.777-35.731 38.023v112.622c0 38.623 31.31 69.933 69.933 69.933v-29.973c-18.802-12.535-31.195-33.928-31.195-58.221z"/></g><path d="m55.376 243.351c0 18.807 13.717 34.41 31.691 37.351 3.228.528 6.158-1.993 6.158-5.265v-64.172c0-3.271-2.929-5.793-6.158-5.265-17.975 2.941-31.691 18.544-31.691 37.351z" fill="#ff965a"/><path d="m84.157 235.893v-4.785c0-1.756-1.638-3.033-3.352-2.648-6.816 1.528-11.909 7.615-11.909 14.892 0 8.128 6.359 14.753 14.372 15.216 1.872.19 3.915-.21 5.954-1.413.929-.548 1.711-1.342 2.246-2.278 3.007-5.255.787-10.595-3.353-12.713-2.385-1.221-3.958-3.593-3.958-6.271z" fill="#ffbe82"/><path d="m161.168 262.784 95.874-1.43v-78.997h-78.729c-14.024 0-26.536 6.458-34.737 16.558 0-.001-3.871 50.759 17.592 63.869z" fill="#927e8f"/><g><path d="m188.104 261.143c-24.705 0-44.733-20.028-44.733-44.733 0-9.035 2.688-17.439 7.295-24.472-10.399 8.191-17.085 20.887-17.085 35.152 0 24.705 20.028 44.733 44.733 44.733h78.729v-10.679h-68.939z" fill="#695a6e"/></g><g><path d="m234.246 182.356h-27.332c-13.714 0-24.831 11.117-24.831 24.832v39.803c0 13.714 11.117 24.832 24.831 24.832h27.332z" fill="#695a6e"/></g><path d="m146.521 243.351c-3.185 0-5.767-2.582-5.767-5.767v-25.887c0-3.185 2.582-5.767 5.767-5.767 3.185 0 5.767 2.582 5.767 5.767v25.887c0 3.185-2.582 5.767-5.767 5.767z" fill="#695a6e"/><path d="m325.916 258.711v-37.887l-21.623-38.468h-63.836v76.355z" fill="#453d49"/><path d="m265.439 256.872c-13.714 0-24.832-11.117-24.832-24.832v-39.803c0-3.512.733-6.852 2.049-9.88h-15.37c-13.714 0-24.831 11.117-24.831 24.832v39.803c0 13.714 11.118 24.831 24.831 24.831h12.803l20.682-3.841 28.484 3.841h36.661v-14.951z" fill="#2b282d"/><path d="m0 209.466h147.283v30.036h-147.283z" fill="#594d5e"/><path d="m32.308 209.466h-32.308v30.036h147.283v-11.579h-96.518c-10.193 0-18.457-8.263-18.457-18.457z" fill="#453d49"/><ellipse cx="248.169" cy="305.774" fill="#ff965a" rx="12.602" ry="20.567"/><path d="m295.391 200.736c-8.971 1.281-30.116 7.048-24.99 27.911s-12.495 13.738-26.588 21.107c-8.798 4.6-6.611 14.945-3.725 22.068h49.166c-.172-4.628 1.294-9.034 6.243-11.622 14.093-7.369 31.714-.244 26.588-21.107-2.019-8.219.046-14.087 3.83-18.269v-38.468h-21.623c4.67 9.184-1.646 17.344-8.901 18.38z" fill="#695a6e"/></g><path d="m486.113 408.416-31.916 24.794h-81.55v31.207h87.422c5.094 0 9.973-2.05 13.539-5.688l30.034-30.645c5.068-5.171 5.026-13.458-.093-18.577-4.707-4.707-12.18-5.174-17.436-1.091z" fill="#ffbe82"/><path d="m417.157 406.714h-53.952c-18.903 0-36.067 11.033-43.917 28.23l-31.618 69.268c31.006-3.102 60.332-11.89 86.937-25.293l19.238-40.41-1.142-.589h14.054c11.489 0 20.803-9.314 20.803-20.803 0-5.746-4.658-10.403-10.403-10.403z" fill="#ffbe82"/><path d="m362.638 438.09h30.394l-.329-.17h14.054c8.019 0 14.974-4.54 18.446-11.187h-51.208c-6.273 0-11.357 5.085-11.357 11.357z" fill="#ff965a"/><path d="m423.445 420.845h-13.755c-7.804 0-14.131-6.327-14.131-14.131h23.923c4.462 0 8.079 3.617 8.079 8.079v1.937c-.001 2.272-1.844 4.115-4.116 4.115z" fill="#ffcea1"/><path d="m477.983 454.264 1.181-1.205h-86.354c-6.272 0-11.357 5.085-11.357 11.357h78.616c5.094 0 9.973-2.05 13.539-5.688z" fill="#ff965a"/><circle cx="389.043" cy="330.556" fill="#e0248b" r="42.602"/><path d="m422.206 201.967h65.54v65.54h-65.54z" fill="#05cdff" transform="matrix(.707 .707 -.707 .707 299.244 -252.963)"/><path d="m342.137 168.94 35.756-50.942 35.756 50.942z" fill="#fff"/></g></g></svg>