<?xml version="1.0" standalone="no"?>
<!DOCTYPE svg PUBLIC "-//W3C//DTD SVG 20010904//EN"
 "http://www.w3.org/TR/2001/REC-SVG-20010904/DTD/svg10.dtd">
<svg version="1.0" xmlns="http://www.w3.org/2000/svg"
 width="750.000000pt" height="750.000000pt" viewBox="0 0 750.000000 750.000000"
 preserveAspectRatio="xMidYMid meet">
<metadata>
Created by potrace 1.11, written by Peter Selinger 2001-2013
</metadata>
<g transform="translate(0.000000,750.000000) scale(0.100000,-0.100000)"
fill="#000000" stroke="none">
<path d="M2110 6884 c-407 -81 -698 -434 -701 -848 -4 -470 370 -860 838 -871
142 -3 254 18 381 72 41 17 66 23 70 16 8 -12 63 -81 77 -97 6 -6 51 -61 101
-122 l91 -110 -64 -85 c-155 -206 -236 -442 -234 -684 0 -109 1 -123 16 -220
l7 -51 -49 -21 c-26 -12 -160 -67 -298 -123 l-249 -102 -26 33 c-263 352 -711
468 -1096 284 -252 -121 -423 -338 -484 -611 -26 -117 -22 -294 9 -407 83
-311 328 -549 651 -633 99 -26 311 -24 415 4 262 70 471 243 584 486 51 108
73 206 77 340 2 66 7 123 11 127 5 3 123 54 265 113 141 58 277 115 302 125
l45 20 28 -38 c158 -215 393 -376 636 -437 l67 -16 1 -92 c0 -50 2 -145 4
-211 2 -66 6 -233 9 -371 l7 -252 -28 -7 c-45 -11 -169 -71 -230 -112 -147
-97 -286 -283 -339 -451 -153 -486 119 -984 613 -1124 112 -32 323 -32 440 0
533 144 808 722 579 1218 -109 235 -327 419 -569 480 l-67 16 -1 42 c0 22 -2
91 -4 151 -2 61 -6 234 -10 385 -3 151 -7 277 -7 280 -3 32 5 39 60 50 214 44
410 150 571 311 l89 89 69 -31 c37 -17 95 -44 128 -59 186 -86 222 -103 241
-110 19 -8 21 -14 15 -52 -8 -59 -7 -202 1 -264 18 -121 87 -281 168 -390 183
-244 509 -378 813 -335 358 51 656 324 732 671 44 198 13 426 -82 600 -155
286 -443 460 -763 462 -265 1 -490 -102 -666 -304 l-31 -35 -214 98 c-130 59
-213 103 -212 111 1 7 11 56 23 108 15 65 23 135 25 220 2 111 -2 153 -29 297
-17 92 -90 256 -158 356 -22 32 -38 60 -36 61 48 41 420 306 428 306 6 0 26
-11 43 -24 73 -54 203 -108 322 -131 96 -19 288 -13 380 13 313 87 543 320
626 633 38 142 28 370 -20 494 -67 172 -165 308 -291 406 -227 175 -545 229
-815 137 -341 -117 -578 -433 -589 -788 -5 -147 19 -272 78 -411 5 -12 -28
-41 -136 -120 -79 -58 -159 -116 -178 -129 -19 -13 -37 -27 -40 -30 -3 -3 -29
-22 -58 -43 l-52 -37 -75 39 c-212 113 -435 154 -682 127 -82 -8 -229 -48
-299 -80 -31 -14 -62 -26 -69 -26 -7 0 -37 30 -66 66 -30 37 -61 74 -69 83 -8
9 -50 60 -93 114 l-79 97 29 47 c80 132 123 280 126 428 2 129 -7 188 -44 299
-101 304 -347 519 -663 581 -86 17 -241 16 -326 -1z m369 -419 c287 -136 360
-518 143 -747 -187 -198 -487 -203 -678 -12 -163 163 -186 413 -54 605 70 103
208 185 330 196 30 3 56 6 58 8 12 10 142 -22 201 -50z m3346 -175 c83 -29
133 -60 192 -122 249 -264 127 -692 -224 -783 -331 -86 -642 206 -581 547 31
174 184 332 362 372 70 17 181 10 251 -14z m-1880 -1415 c108 -20 231 -76 315
-144 190 -152 285 -348 284 -586 0 -132 -20 -217 -75 -329 -133 -268 -393
-420 -699 -410 -375 12 -694 331 -705 705 -1 54 1 119 6 146 5 26 11 57 13 68
9 50 66 176 105 234 116 170 313 296 497 318 27 3 51 7 54 10 6 5 161 -4 205
-12z m-2430 -1266 c155 -58 258 -171 300 -330 65 -243 -91 -508 -336 -572
-285 -73 -565 122 -593 413 -21 216 116 425 324 493 69 23 79 25 165 22 53 -2
100 -11 140 -26z m4594 -93 c153 -25 302 -156 357 -315 19 -54 22 -83 20 -166
-2 -91 -5 -107 -38 -176 -129 -277 -454 -366 -705 -193 -114 79 -190 215 -197
356 -9 167 68 326 201 416 115 77 220 100 362 78z m-2140 -1796 c198 -54 343
-244 343 -450 1 -124 -37 -225 -117 -317 -216 -247 -620 -199 -771 92 -169
324 72 704 436 690 36 -1 85 -8 109 -15z"/>
</g>
</svg>
