<svg data-v-423bf9ae="" xmlns="http://www.w3.org/2000/svg" viewBox="0 0 340 108" class="iconLeft"><!----><!----><!----><g data-v-423bf9ae="" id="218311bc-6935-4fad-bd06-ef6c7bee21d5" fill="#FFFFFF" transform="matrix(6.0108697999139755,0,0,6.0108697999139755,121.18340841258329,1.1985545083891225)"><path d="M2.25 3.72L2.25 3.72L4.40 3.72L4.40 3.72Q5.42 3.72 6.10 4.14L6.10 4.14L6.10 4.14Q6.79 4.56 7.15 5.21L7.15 5.21L7.15 5.21Q7.52 5.87 7.57 6.66L7.57 6.66L7.57 6.66Q7.62 7.45 7.39 8.19L7.39 8.19L7.39 8.19Q7.17 8.93 6.67 9.53L6.67 9.53L6.67 9.53Q6.17 10.14 5.45 10.42L5.45 10.42L7.90 13.52L5.61 13.52L2.90 10.08L2.90 10.08Q2.59 9.69 2.63 9.21L2.63 9.21L2.63 9.21Q2.66 8.74 2.90 8.39L2.90 8.39L2.90 8.39Q2.97 8.54 3.16 8.62L3.16 8.62L3.16 8.62Q3.36 8.71 3.60 8.75L3.60 8.75L3.60 8.75Q3.85 8.79 4.09 8.79L4.09 8.79L4.09 8.79Q4.33 8.79 4.49 8.76L4.49 8.76L4.49 8.76Q4.87 8.69 5.15 8.43L5.15 8.43L5.15 8.43Q5.42 8.16 5.55 7.81L5.55 7.81L5.55 7.81Q5.68 7.45 5.68 7.05L5.68 7.05L5.68 7.05Q5.68 6.65 5.52 6.31L5.52 6.31L5.52 6.31Q5.36 5.98 5.02 5.76L5.02 5.76L5.02 5.76Q4.68 5.54 4.14 5.54L4.14 5.54L2.56 5.54L2.56 13.52L0.70 13.52L0.70 5.45L0.70 5.45Q0.70 4.68 1.05 4.20L1.05 4.20L1.05 4.20Q1.40 3.72 2.25 3.72ZM14.24 10.72L14.24 10.72L14.24 10.72Q13.48 10.92 12.86 10.86L12.86 10.86L12.86 10.86Q12.24 10.81 11.84 10.56L11.84 10.56L11.84 10.56Q11.44 10.32 11.30 9.91L11.30 9.91L11.30 9.91Q11.17 9.49 11.38 8.97L11.38 8.97L11.38 8.97Q11.82 9.34 12.39 9.37L12.39 9.37L12.39 9.37Q12.96 9.41 13.50 9.35L13.50 9.35L13.50 9.35Q13.94 9.31 14.18 9.16L14.18 9.16L14.18 9.16Q14.41 9.00 14.46 8.80L14.46 8.80L14.46 8.80Q14.52 8.60 14.42 8.37L14.42 8.37L14.42 8.37Q14.32 8.15 14.11 7.97L14.11 7.97L14.11 7.97Q13.89 7.78 13.57 7.67L13.57 7.67L13.57 7.67Q13.26 7.56 12.88 7.57L12.88 7.57L12.88 7.57Q12.47 7.60 12.11 7.77L12.11 7.77L12.11 7.77Q11.75 7.94 11.47 8.23L11.47 8.23L11.47 8.23Q11.19 8.53 11.02 8.92L11.02 8.92L11.02 8.92Q10.85 9.31 10.84 9.79L10.84 9.79L10.84 9.79Q10.82 10.18 10.93 10.56L10.93 10.56L10.93 10.56Q11.03 10.93 11.24 11.25L11.24 11.25L11.24 11.25Q11.45 11.56 11.75 11.78L11.75 11.78L11.75 11.78Q12.04 12.00 12.42 12.05L12.42 12.05L12.42 12.05Q12.95 12.15 13.51 11.98L13.51 11.98L13.51 11.98Q14.07 11.82 14.50 11.37L14.50 11.37L15.97 12.08L15.97 12.08Q15.40 12.94 14.62 13.31L14.62 13.31L14.62 13.31Q13.83 13.68 12.82 13.68L12.82 13.68L12.82 13.68Q11.89 13.68 11.18 13.35L11.18 13.35L11.18 13.35Q10.47 13.02 10.00 12.47L10.00 12.47L10.00 12.47Q9.53 11.93 9.30 11.24L9.30 11.24L9.30 11.24Q9.07 10.54 9.09 9.82L9.09 9.82L9.09 9.82Q9.10 9.10 9.37 8.41L9.37 8.41L9.37 8.41Q9.63 7.71 10.14 7.18L10.14 7.18L10.14 7.18Q10.70 6.58 11.45 6.33L11.45 6.33L11.45 6.33Q12.19 6.08 12.98 6.08L12.98 6.08L12.98 6.08Q13.85 6.08 14.48 6.37L14.48 6.37L14.48 6.37Q15.11 6.66 15.50 7.12L15.50 7.12L15.50 7.12Q15.89 7.57 16.02 8.13L16.02 8.13L16.02 8.13Q16.14 8.68 16.00 9.20L16.00 9.20L16.00 9.20Q15.85 9.72 15.41 10.13L15.41 10.13L15.41 10.13Q14.98 10.54 14.24 10.72ZM19.04 3.72L19.04 3.72L19.04 13.52L17.28 13.52L17.28 5.15L17.28 5.15Q17.28 4.48 17.75 4.10L17.75 4.10L17.75 4.10Q18.23 3.71 19.04 3.72ZM25.84 13.52L25.84 12.73L25.84 12.73Q25.31 13.24 24.69 13.48L24.69 13.48L24.69 13.48Q24.07 13.72 23.44 13.70L23.44 13.70L23.44 13.70Q22.81 13.68 22.21 13.41L22.21 13.41L22.21 13.41Q21.62 13.15 21.16 12.65L21.16 12.65L21.16 12.65Q20.71 12.15 20.43 11.46L20.43 11.46L20.43 11.46Q20.16 10.77 20.16 9.88L20.16 9.88L20.16 9.88Q20.16 9.04 20.45 8.33L20.45 8.33L20.45 8.33Q20.75 7.62 21.25 7.11L21.25 7.11L21.25 7.11Q21.74 6.61 22.38 6.34L22.38 6.34L22.38 6.34Q23.02 6.06 23.70 6.09L23.70 6.09L23.70 6.09Q24.37 6.12 24.78 6.39L24.78 6.39L24.78 6.39Q25.19 6.66 25.38 7.03L25.38 7.03L25.38 7.03Q25.56 7.39 25.57 7.76L25.57 7.76L25.57 7.76Q25.58 8.13 25.45 8.36L25.45 8.36L25.45 8.36Q25.21 8.01 24.78 7.89L24.78 7.89L24.78 7.89Q24.35 7.77 23.94 7.77L23.94 7.77L23.94 7.77Q23.30 7.77 22.86 8.09L22.86 8.09L22.86 8.09Q22.43 8.40 22.20 8.88L22.20 8.88L22.20 8.88Q21.98 9.35 21.97 9.91L21.97 9.91L21.97 9.91Q21.97 10.46 22.18 10.93L22.18 10.93L22.18 10.93Q22.40 11.41 22.84 11.73L22.84 11.73L22.84 11.73Q23.28 12.04 23.94 12.04L23.94 12.04L23.94 12.04Q24.50 12.04 24.86 11.79L24.86 11.79L24.86 11.79Q25.23 11.54 25.45 11.14L25.45 11.14L25.45 11.14Q25.66 10.74 25.75 10.24L25.75 10.24L25.75 10.24Q25.84 9.74 25.84 9.25L25.84 9.25L25.84 7.04L25.84 6.27L27.66 6.27L27.66 13.52L25.84 13.52ZM30.83 12.75L30.83 13.52L29.06 13.52L29.06 5.17L29.06 5.17Q29.06 4.59 29.53 4.17L29.53 4.17L29.53 4.17Q30.00 3.75 30.83 3.72L30.83 3.72L30.83 9.37L30.83 9.37Q30.83 9.84 30.92 10.33L30.92 10.33L30.92 10.33Q31.01 10.81 31.22 11.20L31.22 11.20L31.22 11.20Q31.43 11.59 31.79 11.84L31.79 11.84L31.79 11.84Q32.16 12.08 32.70 12.08L32.70 12.08L32.70 12.08Q33.35 12.08 33.78 11.77L33.78 11.77L33.78 11.77Q34.20 11.47 34.41 11.00L34.41 11.00L34.41 11.00Q34.62 10.54 34.62 10.00L34.62 10.00L34.62 10.00Q34.61 9.45 34.39 8.99L34.39 8.99L34.39 8.99Q34.17 8.53 33.75 8.22L33.75 8.22L33.75 8.22Q33.32 7.91 32.69 7.91L32.69 7.91L32.69 7.91Q32.31 7.91 31.89 8.03L31.89 8.03L31.89 8.03Q31.46 8.15 31.22 8.48L31.22 8.48L31.22 8.48Q31.09 8.26 31.09 7.90L31.09 7.90L31.09 7.90Q31.08 7.53 31.26 7.18L31.26 7.18L31.26 7.18Q31.44 6.83 31.84 6.57L31.84 6.57L31.84 6.57Q32.23 6.30 32.93 6.27L32.93 6.27L32.93 6.27Q33.60 6.26 34.22 6.52L34.22 6.52L34.22 6.52Q34.85 6.79 35.33 7.28L35.33 7.28L35.33 7.28Q35.81 7.77 36.10 8.46L36.10 8.46L36.10 8.46Q36.39 9.16 36.39 9.98L36.39 9.98L36.39 9.98Q36.39 10.84 36.12 11.52L36.12 11.52L36.12 11.52Q35.85 12.19 35.41 12.67L35.41 12.67L35.41 12.67Q34.96 13.15 34.38 13.41L34.38 13.41L34.38 13.41Q33.81 13.68 33.19 13.70L33.19 13.70L33.19 13.70Q32.58 13.72 31.96 13.50L31.96 13.50L31.96 13.50Q31.35 13.27 30.83 12.75L30.83 12.75Z"></path></g><defs data-v-423bf9ae=""><linearGradient data-v-423bf9ae="" gradientTransform="rotate(25)" id="0029f18e-93df-464f-82f3-1f740678fcf7" x1="0%" y1="0%" x2="100%" y2="0%"><stop data-v-423bf9ae="" offset="0%" style="stop-color: rgb(65, 226, 150); stop-opacity: 1;"></stop><stop data-v-423bf9ae="" offset="100%" style="stop-color: rgb(59, 161, 179); stop-opacity: 1;"></stop></linearGradient></defs><g data-v-423bf9ae="" id="3e83500f-c972-48a8-96bf-8c11cda90a22" transform="matrix(1.0909474690755208,0,0,1.0909474690755208,-0.8375461210192299,-0.6558347926693315)" stroke="none" fill="url(#0029f18e-93df-464f-82f3-1f740678fcf7)"><path d="M25.25 49.19A13.26 13.26 0 1 0 28 55.91L37.43 52c.26.4.53.79.83 1.17a17.1 17.1 0 0 0 10.1 6.21l.35 13.92a13.23 13.23 0 1 0 6-.27l-.34-13.49a17.08 17.08 0 0 0 8-3.46 17.29 17.29 0 0 0 2.79-2.78l7 3.22c-.05.29-.11.57-.15.87A13.13 13.13 0 1 0 77 48.65a13.19 13.19 0 0 0-2.35 2.4l-6.55-3a17.34 17.34 0 0 0 .77-3.41 17.06 17.06 0 0 0-3.35-12.4L72 27.48a13 13 0 0 0 6.35 2.58 13.4 13.4 0 0 0 1.6.1 13.14 13.14 0 1 0-11.79-7.3L61 28.08a17.14 17.14 0 0 0-17-.82l-4.54-5.55a13.09 13.09 0 1 0-4.52 4l4.26 5.19a17.21 17.21 0 0 0-4.13 15.6L26 50.23q-.36-.53-.75-1.04zm-3.25 9a7.14 7.14 0 1 1-1.47-5.26A7.09 7.09 0 0 1 22 58.15zm56 0a7.14 7.14 0 1 1 1.47 5.26A7.09 7.09 0 0 1 78 58.12zm-2.45-46.78a7.13 7.13 0 1 1-1.21 10 7.14 7.14 0 0 1 1.21-10zM57.93 81.54a7.13 7.13 0 1 1-5.63-2.73 7.24 7.24 0 0 1 .87.05 7.09 7.09 0 0 1 4.76 2.68zM44.88 33.77a11.1 11.1 0 0 1 6.88-2.39 11.36 11.36 0 0 1 1.36.08 11.19 11.19 0 1 1-8.25 2.31zm-11.71-14.1a7.13 7.13 0 1 1-8.81-11.23 7.13 7.13 0 1 1 8.81 11.23z"></path></g><!----></svg>